<svg width="17" height="17" viewBox="0 0 17 17" fill="none" xmlns="http://www.w3.org/2000/svg">
<path d="M10.672 6.12025L5.95814 6.16608L5.97418 7.81592L7.85971 7.79759L5.40901 10.2964L6.59893 11.4634L9.04962 8.96458L9.06796 10.8501L10.7178 10.8341L10.672 6.12025ZM14.173 2.55051C14.996 3.35768 15.6162 4.2725 16.0335 5.29498C16.4508 6.31745 16.6648 7.35879 16.6755 8.41901C16.6859 9.47962 16.4921 10.5249 16.0944 11.5549C15.6966 12.5849 15.0943 13.5116 14.2875 14.3351C13.4804 15.1581 12.5655 15.7783 11.5431 16.1956C10.5206 16.6129 9.47925 16.8269 8.41903 16.8376C7.35842 16.848 6.31311 16.6542 5.28311 16.2565C4.2531 15.8587 3.32639 15.2564 2.50298 14.4496C1.67995 13.6425 1.05978 12.7276 0.642444 11.7052C0.225111 10.6827 0.0110928 9.64136 0.000391285 8.58114C-0.00992123 7.52053 0.18361 6.47503 0.580982 5.44463C0.978355 4.41424 1.58083 3.48772 2.3884 2.66509C3.19557 1.84206 4.11039 1.22189 5.13287 0.804554C6.15534 0.387221 7.19668 0.173202 8.2569 0.162501C9.31751 0.152188 10.363 0.34572 11.3934 0.743092C12.4238 1.14046 13.3503 1.74294 14.173 2.55051Z" fill="white"/>
</svg>
