<svg width="200" height="200" viewBox="0 0 200 200" fill="none" xmlns="http://www.w3.org/2000/svg">
<path d="M99.9 0C44.7 0 0 44.8 0 100C0 155.2 44.7 200 99.9 200C155.2 200 200 155.2 200 100C200 44.8 155.2 0 99.9 0ZM65 60C73.3 60 80 66.7 80 75C80 83.3 73.3 90 65 90C56.7 90 50 83.3 50 75C50 66.7 56.7 60 65 60ZM147.1 127.2C138 146.7 120.4 160 100 160C79.6 160 62 146.7 52.9 127.2C51.3 123.9 53.7 120 57.4 120H142.6C146.3 120 148.7 123.9 147.1 127.2ZM135 90C126.7 90 120 83.3 120 75C120 66.7 126.7 60 135 60C143.3 60 150 66.7 150 75C150 83.3 143.3 90 135 90Z" fill="#696CFF"/>
</svg>
