<svg width="20" height="20" viewBox="0 0 20 20" fill="none" xmlns="http://www.w3.org/2000/svg">
<path d="M13.3325 7.08334H14.9992C14.9992 4.71917 12.7033 3.64084 10.8325 3.39251V1.66667H9.16584V3.39251C7.29501 3.64084 4.99918 4.71917 4.99918 7.08334C4.99918 9.33834 7.22084 10.5108 9.16584 10.775V14.9167C7.95918 14.7075 6.66584 14.0633 6.66584 12.9167H4.99918C4.99918 15.0742 7.02001 16.3492 9.16584 16.6133V18.3333H10.8325V16.6083C12.7033 16.36 14.9992 15.2808 14.9992 12.9167C14.9992 10.5525 12.7033 9.47417 10.8325 9.22584V5.08334C11.9408 5.28251 13.3325 5.86751 13.3325 7.08334ZM6.66584 7.08334C6.66584 5.86751 8.05751 5.28251 9.16584 5.08334V9.08251C8.02334 8.87167 6.66584 8.24751 6.66584 7.08334ZM13.3325 12.9167C13.3325 14.1325 11.9408 14.7175 10.8325 14.9167V10.9167C11.9408 11.1158 13.3325 11.7008 13.3325 12.9167Z" fill="currentcolor" fill-opacity="0.87"/>
</svg>
