<svg width="22" height="22" viewBox="0 0 22 22" fill="none" xmlns="http://www.w3.org/2000/svg">
<path d="M10.0842 9.1665H11.9175V13.7498H10.0842V9.1665ZM10.0833 14.6665H11.9166V16.4998H10.0833V14.6665Z" fill="white"/>
<path d="M12.6208 3.84996C12.3018 3.24955 11.6803 2.87646 11.0001 2.87646C10.3199 2.87646 9.69845 3.24955 9.37945 3.85088L2.65295 16.5586C2.50369 16.8377 2.42975 17.1508 2.43843 17.4672C2.44711 17.7836 2.53811 18.0922 2.70245 18.3626C2.86442 18.6343 3.09445 18.8591 3.36983 19.0147C3.6452 19.1703 3.9564 19.2514 4.2727 19.25H17.7275C18.3765 19.25 18.9641 18.9181 19.2987 18.3626C19.4628 18.0921 19.5536 17.7835 19.5623 17.4672C19.571 17.1509 19.4972 16.8378 19.3482 16.5586L12.6208 3.84996ZM4.2727 17.4166L11.0001 4.70888L17.7321 17.4166H4.2727Z" fill="white"/>
</svg>
