<svg width="20" height="20" viewBox="0 0 20 20" fill="none" xmlns="http://www.w3.org/2000/svg">
<path d="M4.16666 15V18.1383L5.42916 17.3808L9.39749 15H13.3333C14.2525 15 15 14.2525 15 13.3333V6.66667C15 5.7475 14.2525 5 13.3333 5H3.33332C2.41416 5 1.66666 5.7475 1.66666 6.66667V13.3333C1.66666 14.2525 2.41416 15 3.33332 15H4.16666ZM3.33332 6.66667H13.3333V13.3333H8.93582L5.83332 15.195V13.3333H3.33332V6.66667Z" fill="currentcolor" fill-opacity="0.87"/>
<path d="M16.6667 1.66666H6.66667C5.7475 1.66666 5 2.41416 5 3.33332H15C15.9192 3.33332 16.6667 4.08082 16.6667 4.99999V11.6667C17.5858 11.6667 18.3333 10.9192 18.3333 9.99999V3.33332C18.3333 2.41416 17.5858 1.66666 16.6667 1.66666Z" fill="currentcolor" fill-opacity="0.87"/>
</svg>
