<svg width="24" height="24" viewBox="0 0 24 24" fill="none" xmlns="http://www.w3.org/2000/svg">
<path d="M20 13.998C19.908 14.063 18 16.081 18 17.498C18 18.992 18.949 19.946 20 19.998C20.906 20.042 22 19.107 22 17.498C22 15.998 20.092 14.063 20 13.998ZM3.414 12.998C3.414 13.532 3.622 14.034 4 14.412L9.586 19.998C9.964 20.376 10.466 20.584 11 20.584C11.534 20.584 12.036 20.376 12.414 19.998L19.414 12.998L18.707 12.291L11 4.58402L8.707 2.29102L7.293 3.70502L9.586 5.99802L4 11.584C3.622 11.962 3.414 12.464 3.414 12.998ZM11 7.41202L16.586 12.998L11 18.584H11.001L11 19.584V18.584L5.414 12.998L11 7.41202Z" fill="#32475C" fill-opacity="0.6"/>
</svg>
