<svg width="24" height="24" viewBox="0 0 24 24" fill="none" xmlns="http://www.w3.org/2000/svg">
<path d="M11.219 3.37523L8 7.39923L4.781 3.37523C4.65099 3.21451 4.47444 3.09794 4.27558 3.04149C4.07671 2.98505 3.86525 2.99149 3.6702 3.05995C3.47514 3.1284 3.30602 3.2555 3.18604 3.42384C3.06605 3.59218 3.00107 3.79351 3 4.00023V19.0002C3 20.1032 3.897 21.0002 5 21.0002H19C20.103 21.0002 21 20.1032 21 19.0002V4.00023C20.9989 3.79351 20.9339 3.59218 20.814 3.42384C20.694 3.2555 20.5249 3.1284 20.3298 3.05995C20.1347 2.99149 19.9233 2.98505 19.7244 3.04149C19.5256 3.09794 19.349 3.21451 19.219 3.37523L16 7.39923L12.781 3.37523C12.4 2.90123 11.6 2.90123 11.219 3.37523ZM5 19.0002V17.0002H19.001V19.0002H5ZM15.219 9.62523C15.6 10.1002 16.401 10.1002 16.782 9.62523L19 6.85123L19.001 15.0002H5V6.85123L7.219 9.62523C7.6 10.1002 8.401 10.1002 8.782 9.62523L12 5.60123L15.219 9.62523Z" fill="CURRENTCOLOR" />
</svg>
