<svg width="20" height="20" viewBox="0 0 20 20" fill="none" xmlns="http://www.w3.org/2000/svg">
<mask id="path-1-inside-1_658_42557" fill="white">
<path d="M16.4675 3.06628L6.29172 1.26941C5.96528 1.21197 5.6294 1.28652 5.35792 1.47669C5.08644 1.66685 4.90161 1.95705 4.84406 2.28347L2.51985 15.4866C2.49142 15.6483 2.49514 15.8141 2.53081 15.9744C2.56647 16.1347 2.63337 16.2864 2.72769 16.4209C2.82201 16.5553 2.94189 16.6699 3.0805 16.7579C3.2191 16.846 3.3737 16.9059 3.53547 16.9343L13.7113 18.7311C13.8731 18.7597 14.0389 18.756 14.1993 18.7204C14.3597 18.6848 14.5115 18.6179 14.646 18.5236C14.7806 18.4293 14.8952 18.3093 14.9833 18.1707C15.0714 18.032 15.1314 17.8773 15.1597 17.7155L17.4839 4.51238C17.5408 4.18584 17.4658 3.85005 17.2752 3.57886C17.0845 3.30768 16.794 3.1233 16.4675 3.06628ZM13.9269 17.4999L3.75031 15.703L6.07453 2.49988L16.2503 4.29675L13.9269 17.4999ZM6.98 4.56394C7.00895 4.40079 7.1015 4.25582 7.23731 4.16089C7.37311 4.06596 7.54106 4.02884 7.70422 4.05769L14.1886 5.20222C14.3427 5.22922 14.4811 5.31303 14.5764 5.43711C14.6717 5.56118 14.717 5.71649 14.7034 5.87235C14.6897 6.02821 14.6181 6.17328 14.5027 6.27891C14.3873 6.38454 14.2365 6.44303 14.08 6.44285C14.0433 6.4428 14.0068 6.43966 13.9706 6.43347L7.48625 5.28816C7.32311 5.25921 7.17813 5.16666 7.0832 5.03085C6.98827 4.89505 6.95115 4.7271 6.98 4.56394ZM6.54719 7.02644C6.56143 6.94559 6.59147 6.86833 6.63558 6.79909C6.67969 6.72985 6.737 6.66998 6.80426 6.62289C6.87151 6.57581 6.94738 6.54243 7.02754 6.52468C7.10769 6.50692 7.19056 6.50513 7.27141 6.51941L13.7558 7.66472C13.911 7.69068 14.0507 7.77422 14.147 7.89865C14.2433 8.02309 14.2891 8.17927 14.2753 8.33601C14.2615 8.49275 14.189 8.63852 14.0725 8.7442C13.9559 8.84988 13.8037 8.90771 13.6464 8.90613C13.6095 8.9062 13.5726 8.9028 13.5363 8.89597L7.05188 7.75144C6.88886 7.72214 6.74414 7.62932 6.64951 7.49338C6.55488 7.35744 6.51808 7.1895 6.54719 7.02644ZM6.1136 9.48816C6.14309 9.32544 6.23587 9.18105 6.37161 9.0866C6.50735 8.99215 6.67499 8.95535 6.83781 8.98425L10.0784 9.55379C10.2325 9.58077 10.3708 9.66452 10.4661 9.78851C10.5614 9.9125 10.6068 10.0677 10.5932 10.2235C10.5797 10.3793 10.5083 10.5244 10.393 10.6301C10.2777 10.7358 10.127 10.7944 9.97063 10.7944C9.93397 10.7944 9.89738 10.7913 9.86125 10.785L6.61906 10.2124C6.45606 10.1832 6.31128 10.0906 6.21651 9.95484C6.12174 9.81905 6.08473 9.65121 6.1136 9.48816Z"/>
</mask>
<path d="M16.4675 3.06628L6.29172 1.26941C5.96528 1.21197 5.6294 1.28652 5.35792 1.47669C5.08644 1.66685 4.90161 1.95705 4.84406 2.28347L2.51985 15.4866C2.49142 15.6483 2.49514 15.8141 2.53081 15.9744C2.56647 16.1347 2.63337 16.2864 2.72769 16.4209C2.82201 16.5553 2.94189 16.6699 3.0805 16.7579C3.2191 16.846 3.3737 16.9059 3.53547 16.9343L13.7113 18.7311C13.8731 18.7597 14.0389 18.756 14.1993 18.7204C14.3597 18.6848 14.5115 18.6179 14.646 18.5236C14.7806 18.4293 14.8952 18.3093 14.9833 18.1707C15.0714 18.032 15.1314 17.8773 15.1597 17.7155L17.4839 4.51238C17.5408 4.18584 17.4658 3.85005 17.2752 3.57886C17.0845 3.30768 16.794 3.1233 16.4675 3.06628ZM13.9269 17.4999L3.75031 15.703L6.07453 2.49988L16.2503 4.29675L13.9269 17.4999ZM6.98 4.56394C7.00895 4.40079 7.1015 4.25582 7.23731 4.16089C7.37311 4.06596 7.54106 4.02884 7.70422 4.05769L14.1886 5.20222C14.3427 5.22922 14.4811 5.31303 14.5764 5.43711C14.6717 5.56118 14.717 5.71649 14.7034 5.87235C14.6897 6.02821 14.6181 6.17328 14.5027 6.27891C14.3873 6.38454 14.2365 6.44303 14.08 6.44285C14.0433 6.4428 14.0068 6.43966 13.9706 6.43347L7.48625 5.28816C7.32311 5.25921 7.17813 5.16666 7.0832 5.03085C6.98827 4.89505 6.95115 4.7271 6.98 4.56394ZM6.54719 7.02644C6.56143 6.94559 6.59147 6.86833 6.63558 6.79909C6.67969 6.72985 6.737 6.66998 6.80426 6.62289C6.87151 6.57581 6.94738 6.54243 7.02754 6.52468C7.10769 6.50692 7.19056 6.50513 7.27141 6.51941L13.7558 7.66472C13.911 7.69068 14.0507 7.77422 14.147 7.89865C14.2433 8.02309 14.2891 8.17927 14.2753 8.33601C14.2615 8.49275 14.189 8.63852 14.0725 8.7442C13.9559 8.84988 13.8037 8.90771 13.6464 8.90613C13.6095 8.9062 13.5726 8.9028 13.5363 8.89597L7.05188 7.75144C6.88886 7.72214 6.74414 7.62932 6.64951 7.49338C6.55488 7.35744 6.51808 7.1895 6.54719 7.02644ZM6.1136 9.48816C6.14309 9.32544 6.23587 9.18105 6.37161 9.0866C6.50735 8.99215 6.67499 8.95535 6.83781 8.98425L10.0784 9.55379C10.2325 9.58077 10.3708 9.66452 10.4661 9.78851C10.5614 9.9125 10.6068 10.0677 10.5932 10.2235C10.5797 10.3793 10.5083 10.5244 10.393 10.6301C10.2777 10.7358 10.127 10.7944 9.97063 10.7944C9.93397 10.7944 9.89738 10.7913 9.86125 10.785L6.61906 10.2124C6.45606 10.1832 6.31128 10.0906 6.21651 9.95484C6.12174 9.81905 6.08473 9.65121 6.1136 9.48816Z" fill="CURRENTCOLOR" />
<path d="M16.4675 3.06628L15.7719 7.00535L15.7795 7.00667L16.4675 3.06628ZM6.29172 1.26941L6.98729 -2.66965L6.98497 -2.67006L6.29172 1.26941ZM4.84406 2.28347L0.904812 1.589L0.904637 1.58999L4.84406 2.28347ZM2.51985 15.4866L-1.41958 14.7931L-1.41977 14.7942L2.51985 15.4866ZM3.53547 16.9343L4.23104 12.9952L4.22509 12.9941L3.53547 16.9343ZM13.7113 18.7311L13.0157 22.6702L13.0164 22.6703L13.7113 18.7311ZM15.1597 17.7155L11.2203 17.022L11.2195 17.0263L15.1597 17.7155ZM17.4839 4.51238L21.4233 5.20586L21.4244 5.1995L17.4839 4.51238ZM13.9269 17.4999L13.2314 21.4389L17.1727 22.1349L17.8663 18.1931L13.9269 17.4999ZM3.75031 15.703L-0.189112 15.0095L-0.882232 18.9469L3.05479 19.6421L3.75031 15.703ZM6.07453 2.49988L6.77011 -1.43918L2.82895 -2.13512L2.13511 1.8064L6.07453 2.49988ZM16.2503 4.29675L20.1898 4.99001L20.8826 1.05286L16.9459 0.357696L16.2503 4.29675ZM6.98 4.56394L3.04153 3.86505L3.04111 3.86741L6.98 4.56394ZM7.70422 4.05769L7.00769 7.99658L7.00894 7.9968L7.70422 4.05769ZM14.1886 5.20222L13.4933 9.14134L13.4984 9.14222L14.1886 5.20222ZM14.08 6.44285L14.0745 10.4428L14.0752 10.4428L14.08 6.44285ZM13.9706 6.43347L13.2749 10.3725L13.2851 10.3743L13.2953 10.3761L13.9706 6.43347ZM7.48625 5.28816L6.78736 9.22663L6.79052 9.22719L7.48625 5.28816ZM6.54719 7.02644L10.4849 7.72955L10.4865 7.72048L6.54719 7.02644ZM7.27141 6.51941L7.96715 2.58038L7.96708 2.58037L7.27141 6.51941ZM13.7558 7.66472L13.06 11.6038L13.078 11.6069L13.0959 11.6099L13.7558 7.66472ZM13.6464 8.90613L13.6866 4.90633L13.6625 4.90609L13.6385 4.90614L13.6464 8.90613ZM13.5363 8.89597L14.2754 4.96485L14.2535 4.96074L14.2315 4.95686L13.5363 8.89597ZM7.05188 7.75144L6.34415 11.6884L6.3566 11.6906L7.05188 7.75144ZM6.1136 9.48816L2.17773 8.77473L2.17628 8.78275L2.17486 8.79077L6.1136 9.48816ZM6.83781 8.98425L6.13868 12.9227L6.14544 12.9239L6.83781 8.98425ZM10.0784 9.55379L9.38606 13.4934L9.38822 13.4938L10.0784 9.55379ZM9.97063 10.7944L9.96883 14.7944H9.97085L9.97063 10.7944ZM9.86125 10.785L9.16551 14.7241L9.17391 14.7255L9.18231 14.727L9.86125 10.785ZM6.61906 10.2124L5.91533 14.15L5.92333 14.1514L6.61906 10.2124ZM17.1631 -0.872773L6.98729 -2.66965L5.59615 5.20847L15.7719 7.00534L17.1631 -0.872773ZM6.98497 -2.67006C5.61393 -2.91133 4.2032 -2.59818 3.063 -1.79949L7.65284 4.75287C7.05559 5.17123 6.31664 5.33526 5.59847 5.20888L6.98497 -2.67006ZM3.063 -1.79949C1.92281 -1.0008 1.14651 0.218039 0.904812 1.589L8.78332 2.97794C8.65672 3.69607 8.25008 4.33451 7.65284 4.75287L3.063 -1.79949ZM0.904637 1.58999L-1.41958 14.7931L6.45927 16.1801L8.78349 2.97695L0.904637 1.58999ZM-1.41977 14.7942C-1.53917 15.4735 -1.52353 16.1698 -1.37374 16.843L6.43535 15.1058C6.51381 15.4585 6.522 15.8231 6.45946 16.179L-1.41977 14.7942ZM-1.37374 16.843C-1.22396 17.5163 -0.942972 18.1535 -0.546829 18.7182L6.00221 14.1236C6.20971 14.4194 6.3569 14.7531 6.43535 15.1058L-1.37374 16.843ZM-0.546829 18.7182C-0.150679 19.2828 0.352849 19.7639 0.934966 20.1338L5.22603 13.382C5.53094 13.5758 5.7947 13.8278 6.00221 14.1236L-0.546829 18.7182ZM0.934966 20.1338C1.5171 20.5038 2.16643 20.7554 2.84585 20.8744L4.22509 12.9941C4.58098 13.0564 4.9211 13.1882 5.22603 13.382L0.934966 20.1338ZM2.8399 20.8733L13.0157 22.6702L14.4068 14.7921L4.23104 12.9952L2.8399 20.8733ZM13.0164 22.6703C13.696 22.7902 14.3926 22.7749 15.0662 22.6253L13.3324 14.8155C13.6853 14.7372 14.0501 14.7292 14.4061 14.7919L13.0164 22.6703ZM15.0662 22.6253C15.7399 22.4758 16.3775 22.1949 16.9425 21.7987L12.3496 15.2485C12.6455 15.041 12.9795 14.8938 13.3324 14.8155L15.0662 22.6253ZM16.9425 21.7987C17.5075 21.4025 17.9888 20.8989 18.359 20.3165L11.6076 16.0249C11.8015 15.7198 12.0536 15.456 12.3496 15.2485L16.9425 21.7987ZM18.359 20.3165C18.7292 19.7341 18.981 19.0844 19.0999 18.4047L11.2195 17.0263C11.2818 16.6703 11.4136 16.33 11.6076 16.0249L18.359 20.3165ZM19.0991 18.409L21.4233 5.20586L13.5445 3.8189L11.2203 17.022L19.0991 18.409ZM21.4244 5.1995C21.6636 3.82802 21.3482 2.41771 20.5477 1.27873L14.0026 5.879C13.5833 5.28238 13.4181 4.54365 13.5434 3.82526L21.4244 5.1995ZM20.5477 1.27873C19.7471 0.139751 18.527 -0.634627 17.1555 -0.874096L15.7795 7.00667C15.0611 6.88123 14.422 6.4756 14.0026 5.879L20.5477 1.27873ZM14.6224 13.5608L4.44584 11.7639L3.05479 19.6421L13.2314 21.4389L14.6224 13.5608ZM7.68974 16.3965L10.014 3.19336L2.13511 1.8064L-0.189112 15.0095L7.68974 16.3965ZM5.37896 6.43894L15.5547 8.23581L16.9459 0.357696L6.77011 -1.43918L5.37896 6.43894ZM12.3108 3.6035L9.98741 16.8066L17.8663 18.1931L20.1898 4.99001L12.3108 3.6035ZM10.9185 5.26283C10.7621 6.14382 10.2624 6.92668 9.52902 7.43931L4.9456 0.882467C3.94064 1.58496 3.25577 2.65777 3.04153 3.86505L10.9185 5.26283ZM9.52902 7.43931C8.79567 7.95194 7.88878 8.15239 7.00769 7.99658L8.40075 0.118802C7.19334 -0.0947099 5.95055 0.179973 4.9456 0.882467L9.52902 7.43931ZM7.00894 7.9968L13.4933 9.14133L14.8839 1.26311L8.3995 0.118581L7.00894 7.9968ZM13.4984 9.14222C12.6662 8.99644 11.919 8.54384 11.4043 7.87385L17.7485 3.00036C17.0432 2.08222 16.0192 1.46199 14.8788 1.26222L13.4984 9.14222ZM11.4043 7.87385C10.8896 7.20388 10.6449 6.36522 10.7186 5.52355L18.6881 6.22114C18.7891 5.06776 18.4538 3.91848 17.7485 3.00036L11.4043 7.87385ZM10.7186 5.52355C10.7923 4.68192 11.1789 3.89851 11.8022 3.32812L17.2032 9.2297C18.0573 8.44805 18.5872 7.37449 18.6881 6.22114L10.7186 5.52355ZM11.8022 3.32812C12.4254 2.75773 13.2399 2.44184 14.0848 2.44285L14.0752 10.4428C15.233 10.4442 16.3492 10.0113 17.2032 9.2297L11.8022 3.32812ZM14.0855 2.44285C14.2733 2.44311 14.4608 2.45918 14.646 2.49089L13.2953 10.3761C13.5527 10.4201 13.8134 10.4425 14.0745 10.4428L14.0855 2.44285ZM14.6664 2.49444L8.18199 1.34913L6.79052 9.22719L13.2749 10.3725L14.6664 2.49444ZM8.18514 1.34969C9.06613 1.50602 9.84899 2.00579 10.3616 2.73914L3.80478 7.32257C4.50727 8.32753 5.58008 9.0124 6.78736 9.22663L8.18514 1.34969ZM10.3616 2.73914C10.8743 3.47249 11.0747 4.37938 10.9189 5.26047L3.04111 3.86741C2.8276 5.07483 3.10228 6.31761 3.80478 7.32257L10.3616 2.73914ZM10.4865 7.72048C10.4096 8.15708 10.2474 8.57425 10.0092 8.94817L3.26193 4.65002C2.93553 5.16242 2.71327 5.7341 2.60786 6.3324L10.4865 7.72048ZM10.0092 8.94817C9.77103 9.32208 9.46151 9.6454 9.09835 9.89965L4.51017 3.34613C4.0125 3.69455 3.58834 4.13762 3.26193 4.65002L10.0092 8.94817ZM9.09835 9.89965C8.73518 10.1539 8.32548 10.3341 7.89263 10.43L6.16245 2.61935C5.56929 2.75074 5.00784 2.9977 4.51017 3.34613L9.09835 9.89965ZM7.89263 10.43C7.4598 10.5259 7.01231 10.5356 6.57574 10.4585L7.96708 2.58037C7.36881 2.47471 6.75559 2.48795 6.16245 2.61935L7.89263 10.43ZM6.57567 10.4584L13.06 11.6038L14.4515 3.72569L7.96715 2.58038L6.57567 10.4584ZM13.0959 11.6099C12.2579 11.4698 11.5036 11.0187 10.9836 10.3467L17.3104 5.45061C16.5978 4.52977 15.564 3.9116 14.4156 3.71952L13.0959 11.6099ZM10.9836 10.3467C10.4636 9.67473 10.2161 8.83135 10.2907 7.98495L18.2598 8.68708C18.362 7.5272 18.023 6.37145 17.3104 5.45061L10.9836 10.3467ZM10.2907 7.98495C10.3653 7.13854 10.7564 6.35142 11.3859 5.78074L16.7591 11.7077C17.6217 10.9256 18.1576 9.84697 18.2598 8.68708L10.2907 7.98495ZM11.3859 5.78074C12.0154 5.21005 12.8369 4.8978 13.6866 4.90633L13.6062 12.9059C14.7706 12.9176 15.8964 12.4897 16.7591 11.7077L11.3859 5.78074ZM13.6385 4.90614C13.8521 4.90571 14.0654 4.92537 14.2754 4.96485L12.7971 12.8271C13.0798 12.8802 13.3668 12.9067 13.6543 12.9061L13.6385 4.90614ZM14.2315 4.95686L7.74715 3.81233L6.3566 11.6906L12.841 12.8351L14.2315 4.95686ZM7.7596 3.81455C8.63991 3.9728 9.4214 4.47401 9.93241 5.20808L3.36661 9.77867C4.06687 10.7846 5.13781 11.4715 6.34416 11.6883L7.7596 3.81455ZM9.93241 5.20808C10.4434 5.94215 10.6421 6.84905 10.4849 7.72955L2.60947 6.32333C2.39402 7.52994 2.66634 8.77272 3.36661 9.77867L9.93241 5.20808ZM10.0495 10.2016C9.89019 11.0803 9.38918 11.86 8.65618 12.37L4.08704 5.8032C3.08255 6.50211 2.39599 7.57063 2.17773 8.77473L10.0495 10.2016ZM8.65618 12.37C7.92318 12.88 7.01792 13.0788 6.13868 12.9227L7.53695 5.04583C6.33207 4.83194 5.09153 5.10428 4.08704 5.8032L8.65618 12.37ZM6.14544 12.9239L9.38606 13.4934L10.7708 5.61416L7.53019 5.04463L6.14544 12.9239ZM9.38822 13.4938C8.55641 13.3481 7.80943 12.8958 7.29477 12.2262L13.6375 7.35078C12.9322 6.43325 11.9086 5.81347 10.7687 5.61379L9.38822 13.4938ZM7.29477 12.2262C6.7801 11.5567 6.53515 10.7185 6.60827 9.87722L14.5782 10.5698C14.6784 9.41691 14.3427 8.26831 13.6375 7.35078L7.29477 12.2262ZM6.60827 9.87722C6.68138 9.0359 7.06724 8.25256 7.68968 7.68182L13.0963 13.5783C13.9493 12.7962 14.478 11.7227 14.5782 10.5698L6.60827 9.87722ZM7.68968 7.68182C8.31213 7.1111 9.12592 6.79446 9.97041 6.79441L9.97085 14.7944C11.1281 14.7943 12.2433 14.3604 13.0963 13.5783L7.68968 7.68182ZM9.97242 6.79441C10.1627 6.7945 10.3526 6.81077 10.5402 6.84308L9.18231 14.727C9.44213 14.7717 9.70525 14.7943 9.96883 14.7944L9.97242 6.79441ZM10.557 6.84601L7.3148 6.27335L5.92333 14.1514L9.16551 14.7241L10.557 6.84601ZM7.3228 6.27477C8.20302 6.43208 8.98483 6.93227 9.49659 7.6655L2.93643 12.2442C3.63773 13.249 4.70911 13.9344 5.91533 14.15L7.3228 6.27477ZM9.49659 7.6655C10.0084 8.39874 10.2082 9.30509 10.0523 10.1856L2.17486 8.79077C1.96123 9.99733 2.23513 11.2394 2.93643 12.2442L9.49659 7.6655Z" fill="CURRENTCOLOR"  mask="url(#path-1-inside-1_658_42557)"/>
</svg>
