<svg width="20" height="20" viewBox="0 0 20 20" fill="none" xmlns="http://www.w3.org/2000/svg">
<path d="M8.82509 11.1751C9.16676 11.5001 9.16676 12.0334 8.82509 12.3584C8.50009 12.6834 7.96676 12.6834 7.64176 12.3584C6.86124 11.5767 6.42285 10.5172 6.42285 9.41259C6.42285 8.30795 6.86124 7.24845 7.64176 6.46676L10.5918 3.51676C11.3735 2.73624 12.4329 2.29785 13.5376 2.29785C14.6422 2.29785 15.7017 2.73624 16.4834 3.51676C17.2639 4.29845 17.7023 5.35795 17.7023 6.46259C17.7023 7.56724 17.2639 8.62674 16.4834 9.40843L15.2418 10.6501C15.2501 9.96676 15.1418 9.28343 14.9084 8.63343L15.3001 8.23343C15.5337 8.00233 15.7192 7.7272 15.8457 7.42395C15.9723 7.12071 16.0375 6.79536 16.0375 6.46676C16.0375 6.13816 15.9723 5.81282 15.8457 5.50957C15.7192 5.20632 15.5337 4.93119 15.3001 4.70009C15.069 4.46648 14.7939 4.28102 14.4906 4.15444C14.1874 4.02787 13.862 3.9627 13.5334 3.9627C13.2048 3.9627 12.8795 4.02787 12.5762 4.15444C12.273 4.28102 11.9979 4.46648 11.7668 4.70009L8.82509 7.64176C8.59148 7.87286 8.40602 8.14799 8.27944 8.45124C8.15287 8.75448 8.0877 9.07982 8.0877 9.40843C8.0877 9.73703 8.15287 10.0624 8.27944 10.3656C8.40602 10.6689 8.59148 10.944 8.82509 11.1751ZM11.1751 7.64176C11.5001 7.31676 12.0334 7.31676 12.3584 7.64176C13.1389 8.42345 13.5773 9.48295 13.5773 10.5876C13.5773 11.6922 13.1389 12.7517 12.3584 13.5334L9.40843 16.4834C8.62674 17.2639 7.56724 17.7023 6.46259 17.7023C5.35795 17.7023 4.29845 17.2639 3.51676 16.4834C2.73624 15.7017 2.29785 14.6422 2.29785 13.5376C2.29785 12.4329 2.73624 11.3735 3.51676 10.5918L4.75843 9.35009C4.75009 10.0334 4.85843 10.7168 5.09176 11.3751L4.70009 11.7668C4.46648 11.9979 4.28102 12.273 4.15444 12.5762C4.02787 12.8795 3.9627 13.2048 3.9627 13.5334C3.9627 13.862 4.02787 14.1874 4.15444 14.4906C4.28102 14.7939 4.46648 15.069 4.70009 15.3001C4.93119 15.5337 5.20632 15.7192 5.50957 15.8457C5.81282 15.9723 6.13816 16.0375 6.46676 16.0375C6.79536 16.0375 7.12071 15.9723 7.42395 15.8457C7.7272 15.7192 8.00233 15.5337 8.23343 15.3001L11.1751 12.3584C11.4087 12.1273 11.5942 11.8522 11.7207 11.549C11.8473 11.2457 11.9125 10.9204 11.9125 10.5918C11.9125 10.2632 11.8473 9.93782 11.7207 9.63457C11.5942 9.33132 11.4087 9.05619 11.1751 8.82509C11.0942 8.74925 11.0296 8.65762 10.9855 8.55585C10.9414 8.45408 10.9187 8.34434 10.9187 8.23343C10.9187 8.12251 10.9414 8.01278 10.9855 7.91101C11.0296 7.80924 11.0942 7.7176 11.1751 7.64176Z" fill="#696CFF"/>
</svg>
