<svg width="20" height="20" viewBox="0 0 20 20" fill="none" xmlns="http://www.w3.org/2000/svg">
<path d="M8.33464 9.16667H5.9188L5.91964 9.15917C6.02845 8.62636 6.24141 8.12029 6.5463 7.67C7.00001 7.00151 7.63642 6.47763 8.37964 6.16083C8.6313 6.05417 8.8938 5.9725 9.1613 5.91833C9.71621 5.80583 10.2881 5.80583 10.843 5.91833C11.6404 6.08174 12.3722 6.47618 12.9471 7.0525L14.1271 5.87583C13.5953 5.34387 12.9661 4.9192 12.2738 4.625C11.9207 4.47552 11.5536 4.36163 11.178 4.285C10.4028 4.12751 9.60394 4.12751 8.8288 4.285C8.45284 4.36195 8.08548 4.47612 7.73214 4.62583C6.69091 5.06759 5.79958 5.80091 5.16547 6.7375C4.73871 7.36904 4.44027 8.07833 4.28714 8.825C4.2638 8.9375 4.2513 9.0525 4.23464 9.16667H1.66797L5.0013 12.5L8.33464 9.16667ZM11.668 10.8333H14.0838L14.083 10.84C13.8652 11.9081 13.2357 12.8476 12.3305 13.455C11.8803 13.7601 11.3742 13.9731 10.8413 14.0817C10.2867 14.1942 9.7151 14.1942 9.16047 14.0817C8.62766 13.9729 8.12159 13.7599 7.6713 13.455C7.45015 13.3054 7.24367 13.1352 7.05464 12.9467L5.8763 14.125C6.40839 14.6568 7.03791 15.0812 7.73047 15.375C8.0838 15.525 8.45297 15.6392 8.8263 15.715C9.60115 15.8726 10.3998 15.8726 11.1746 15.715C12.6684 15.405 13.9824 14.5245 14.8371 13.2608C15.2635 12.6298 15.5616 11.9211 15.7146 11.175C15.7371 11.0625 15.7505 10.9475 15.7671 10.8333H18.3346L15.0013 7.5L11.668 10.8333Z" fill="currentcolor"/>
</svg>
