<svg width="20" height="20" viewBox="0 0 20 20" fill="none" xmlns="http://www.w3.org/2000/svg">
<path d="M10.0013 13.3333C11.8396 13.3333 13.3346 11.8383 13.3346 10C13.3346 8.16166 11.8396 6.66666 10.0013 6.66666C8.16297 6.66666 6.66797 8.16166 6.66797 10C6.66797 11.8383 8.16297 13.3333 10.0013 13.3333ZM10.0013 8.33333C10.9046 8.33333 11.668 9.09666 11.668 10C11.668 10.9033 10.9046 11.6667 10.0013 11.6667C9.09797 11.6667 8.33464 10.9033 8.33464 10C8.33464 9.09666 9.09797 8.33333 10.0013 8.33333Z" fill="currentcolor"/>
<path d="M2.37163 13.4467L3.20496 14.8883C3.64746 15.6525 4.71246 15.9392 5.47996 15.4967L5.9208 15.2417C6.40291 15.6209 6.93447 15.9327 7.5008 16.1683V16.6667C7.5008 17.5858 8.2483 18.3333 9.16746 18.3333H10.8341C11.7533 18.3333 12.5008 17.5858 12.5008 16.6667V16.1683C13.0669 15.9326 13.5984 15.6212 14.0808 15.2425L14.5216 15.4975C15.2908 15.9392 16.3533 15.6542 16.7975 14.8883L17.63 13.4475C17.8508 13.0647 17.9107 12.61 17.7965 12.1831C17.6823 11.7562 17.4033 11.3921 17.0208 11.1708L16.6 10.9275C16.6894 10.313 16.6894 9.6887 16.6 9.07416L17.0208 8.83083C17.4031 8.60936 17.6819 8.24527 17.7961 7.81846C17.9104 7.39165 17.8506 6.93696 17.63 6.55416L16.7975 5.11333C16.355 4.34666 15.2908 4.05916 14.5216 4.50333L14.0808 4.75833C13.5987 4.37909 13.0671 4.06733 12.5008 3.83166V3.33333C12.5008 2.41416 11.7533 1.66666 10.8341 1.66666H9.16746C8.2483 1.66666 7.5008 2.41416 7.5008 3.33333V3.83166C6.93466 4.06736 6.40315 4.37882 5.9208 4.7575L5.47996 4.5025C4.70996 4.06 3.64663 4.34666 3.20413 5.1125L2.37163 6.55333C2.15078 6.93608 2.09089 7.39084 2.20511 7.81772C2.31933 8.2446 2.59832 8.60868 2.9808 8.83L3.40163 9.07333C3.31182 9.68757 3.31182 10.3116 3.40163 10.9258L2.9808 11.1692C2.59843 11.3908 2.31957 11.755 2.20537 12.182C2.09118 12.6089 2.15097 13.0637 2.37163 13.4467ZM5.1433 11.1483C5.0492 10.7728 5.00134 10.3872 5.0008 10C5.0008 9.615 5.04913 9.22833 5.14246 8.85166C5.18641 8.6761 5.17196 8.491 5.10128 8.3244C5.03061 8.15779 4.90757 8.01875 4.7508 7.92833L3.81496 7.38666L4.64663 5.94583L5.6008 6.4975C5.7564 6.58754 5.93701 6.62468 6.11552 6.60334C6.29403 6.582 6.4608 6.50334 6.5908 6.37916C7.15456 5.84296 7.8344 5.44401 8.57746 5.21333C8.74815 5.16122 8.8976 5.05569 9.00381 4.91227C9.11002 4.76885 9.16739 4.59513 9.16746 4.41666V3.33333H10.8341V4.41666C10.8342 4.59513 10.8916 4.76885 10.9978 4.91227C11.104 5.05569 11.2534 5.16122 11.4241 5.21333C12.167 5.44434 12.8468 5.84325 13.4108 6.37916C13.5409 6.5031 13.7077 6.5816 13.8861 6.60293C14.0646 6.62426 14.2451 6.58727 14.4008 6.4975L15.3541 5.94666L16.1875 7.3875L15.2508 7.92833C15.0941 8.01885 14.9712 8.1579 14.9005 8.32448C14.8298 8.49105 14.8153 8.6761 14.8591 8.85166C14.9525 9.22833 15.0008 9.615 15.0008 10C15.0008 10.3842 14.9525 10.7708 14.8583 11.1483C14.8146 11.324 14.8292 11.5091 14.9 11.6757C14.9708 11.8423 15.094 11.9813 15.2508 12.0717L16.1866 12.6125L15.355 14.0533L14.4008 13.5025C14.2452 13.4123 14.0646 13.3751 13.886 13.3964C13.7075 13.4178 13.5407 13.4965 13.4108 13.6208C12.847 14.157 12.1672 14.556 11.4241 14.7867C11.2534 14.8388 11.104 14.9443 10.9978 15.0877C10.8916 15.2311 10.8342 15.4049 10.8341 15.5833L10.8358 16.6667H9.16746V15.5833C9.16739 15.4049 9.11002 15.2311 9.00381 15.0877C8.8976 14.9443 8.74815 14.8388 8.57746 14.7867C7.83455 14.5557 7.15478 14.1567 6.5908 13.6208C6.46105 13.4962 6.29417 13.4173 6.1155 13.396C5.93683 13.3748 5.75612 13.4125 5.6008 13.5033L4.64746 14.055L3.81413 12.6142L4.7508 12.0717C4.90762 11.9813 5.03075 11.8423 5.10157 11.6757C5.17238 11.5091 5.18703 11.324 5.1433 11.1483Z" fill="currentcolor" />
</svg>
