<svg width="20" height="20" viewBox="0 0 20 20" fill="none" xmlns="http://www.w3.org/2000/svg">
<path d="M16.668 5.83333H15.6605C15.7827 5.42815 15.8414 5.00649 15.8346 4.58333C15.8346 2.975 14.5263 1.66667 12.918 1.66667C11.5663 1.66667 10.6638 2.90167 10.0813 4.2375C9.50714 2.975 8.5588 1.66667 7.08464 1.66667C5.4763 1.66667 4.16797 2.975 4.16797 4.58333C4.16797 5.08 4.2338 5.49083 4.34214 5.83333H3.33464C2.41547 5.83333 1.66797 6.58083 1.66797 7.5V9.16667C1.66797 10.0858 2.41547 10.8333 3.33464 10.8333V16.6667C3.33464 17.5858 4.08214 18.3333 5.0013 18.3333H15.0013C15.9205 18.3333 16.668 17.5858 16.668 16.6667V10.8333C17.5871 10.8333 18.3346 10.0858 18.3346 9.16667V7.5C18.3346 6.58083 17.5871 5.83333 16.668 5.83333ZM12.918 3.33333C13.6071 3.33333 14.168 3.89417 14.168 4.58333C14.168 5.83333 13.6463 5.83333 13.3346 5.83333H11.2696C11.6955 4.52 12.3138 3.33333 12.918 3.33333ZM5.83464 4.58333C5.83464 3.89417 6.39547 3.33333 7.08464 3.33333C7.82464 3.33333 8.51297 4.60417 8.9163 5.83333H6.66797C6.3563 5.83333 5.83464 5.83333 5.83464 4.58333ZM3.33464 7.5H9.16797V9.16667H3.33464V7.5ZM5.0013 16.6667V10.8333H9.16797V16.6667H5.0013ZM15.0013 16.6667H10.8346V10.8333H15.0013V16.6667ZM10.8346 9.16667V7.57084L10.8488 7.5H16.668L16.6688 9.16667H10.8346Z" fill="currentcolor"/>
</svg>
