<svg width="28" height="28" viewBox="0 0 28 28" fill="none" xmlns="http://www.w3.org/2000/svg">
<path d="M24.4999 23.625H20.0549C22.3729 22.1646 24.0856 19.9163 24.878 17.2937C25.6703 14.6711 25.489 11.8505 24.3674 9.35095C23.2459 6.85136 21.2594 4.84083 18.7735 3.68919C16.2876 2.53756 13.4695 2.32228 10.8375 3.08297C8.20555 3.84365 5.93677 5.52913 4.44853 7.82936C2.96029 10.1296 2.35268 12.8898 2.73749 15.6024C3.1223 18.3149 4.47363 20.7973 6.5429 22.5928C8.61218 24.3884 11.2602 25.3763 13.9999 25.375H24.4999C24.732 25.375 24.9545 25.2828 25.1186 25.1187C25.2827 24.9546 25.3749 24.7321 25.3749 24.5C25.3749 24.2679 25.2827 24.0454 25.1186 23.8813C24.9545 23.7172 24.732 23.625 24.4999 23.625ZM8.74992 16.1875C8.31727 16.1875 7.89434 16.0592 7.53461 15.8188C7.17487 15.5785 6.8945 15.2368 6.72893 14.8371C6.56336 14.4374 6.52004 13.9976 6.60445 13.5732C6.68885 13.1489 6.89719 12.7591 7.20312 12.4532C7.50905 12.1473 7.89882 11.9389 8.32315 11.8545C8.74749 11.7701 9.18732 11.8134 9.58704 11.979C9.98675 12.1446 10.3284 12.425 10.5688 12.7847C10.8091 13.1444 10.9374 13.5673 10.9374 14C10.9374 14.5802 10.7069 15.1366 10.2967 15.5468C9.88648 15.957 9.33008 16.1875 8.74992 16.1875ZM13.9999 21.4375C13.5673 21.4375 13.1443 21.3092 12.7846 21.0688C12.4249 20.8285 12.1445 20.4868 11.9789 20.0871C11.8134 19.6874 11.77 19.2476 11.8544 18.8232C11.9389 18.3989 12.1472 18.0091 12.4531 17.7032C12.759 17.3973 13.1488 17.1889 13.5732 17.1045C13.9975 17.0201 14.4373 17.0634 14.837 17.229C15.2367 17.3946 15.5784 17.675 15.8188 18.0347C16.0591 18.3944 16.1874 18.8173 16.1874 19.25C16.1874 19.8302 15.9569 20.3866 15.5467 20.7968C15.1365 21.207 14.5801 21.4375 13.9999 21.4375ZM13.9999 10.9375C13.5673 10.9375 13.1443 10.8092 12.7846 10.5688C12.4249 10.3285 12.1445 9.98683 11.9789 9.58711C11.8134 9.1874 11.77 8.74757 11.8544 8.32323C11.9389 7.8989 12.1472 7.50913 12.4531 7.2032C12.759 6.89727 13.1488 6.68893 13.5732 6.60453C13.9975 6.52012 14.4373 6.56344 14.837 6.72901C15.2367 6.89457 15.5784 7.17495 15.8188 7.53468C16.0591 7.89442 16.1874 8.31735 16.1874 8.74999C16.1874 9.33016 15.9569 9.88655 15.5467 10.2968C15.1365 10.707 14.5801 10.9375 13.9999 10.9375ZM17.0624 14C17.0624 13.5673 17.1907 13.1444 17.4311 12.7847C17.6714 12.425 18.0131 12.1446 18.4128 11.979C18.8125 11.8134 19.2523 11.7701 19.6767 11.8545C20.101 11.9389 20.4908 12.1473 20.7967 12.4532C21.1026 12.7591 21.311 13.1489 21.3954 13.5732C21.4798 13.9976 21.4365 14.4374 21.2709 14.8371C21.1053 15.2368 20.825 15.5785 20.4652 15.8188C20.1055 16.0592 19.6826 16.1875 19.2499 16.1875C18.6698 16.1875 18.1134 15.957 17.7031 15.5468C17.2929 15.1366 17.0624 14.5802 17.0624 14Z" fill="#696CFF"/>
</svg>
