<svg width="20" height="20" viewBox="0 0 20 20" fill="none" xmlns="http://www.w3.org/2000/svg">
<path d="M12.7917 16.6667L11.1667 18.2708C10.8472 18.5903 10.4583 18.75 10 18.75C9.54167 18.75 9.15278 18.5903 8.83333 18.2708L7.20833 16.6667H5C4.54167 16.6667 4.14917 16.5033 3.8225 16.1767C3.49583 15.85 3.33278 15.4578 3.33333 15V12.7917L1.72917 11.1667C1.40972 10.8472 1.25 10.4583 1.25 10C1.25 9.54167 1.40972 9.15278 1.72917 8.83333L3.33333 7.20833V5C3.33333 4.54167 3.49667 4.14917 3.82333 3.8225C4.15 3.49583 4.54222 3.33278 5 3.33333H7.20833L8.83333 1.72917C9.15278 1.40972 9.54167 1.25 10 1.25C10.4583 1.25 10.8472 1.40972 11.1667 1.72917L12.7917 3.33333H15C15.4583 3.33333 15.8508 3.49667 16.1775 3.82333C16.5042 4.15 16.6672 4.54222 16.6667 5V7.20833L18.2708 8.83333C18.5903 9.15278 18.75 9.54167 18.75 10C18.75 10.4583 18.5903 10.8472 18.2708 11.1667L16.6667 12.7917V15C16.6667 15.4583 16.5033 15.8508 16.1767 16.1775C15.85 16.5042 15.4578 16.6672 15 16.6667H12.7917ZM10 12.0625L11.6042 13.0208C11.7569 13.1181 11.9061 13.1147 12.0517 13.0108C12.1972 12.9069 12.2494 12.7644 12.2083 12.5833L11.7917 10.7708L13.2083 9.54167C13.3472 9.41667 13.3889 9.2675 13.3333 9.09417C13.2778 8.92083 13.1528 8.82694 12.9583 8.8125L11.1042 8.66667L10.375 6.9375C10.3056 6.77083 10.1806 6.6875 10 6.6875C9.81944 6.6875 9.69444 6.77083 9.625 6.9375L8.89583 8.66667L7.04167 8.8125C6.84722 8.82639 6.72222 8.92028 6.66667 9.09417C6.61111 9.26806 6.65278 9.41722 6.79167 9.54167L8.20833 10.7708L7.79167 12.5833C7.75 12.7639 7.80222 12.9064 7.94833 13.0108C8.09444 13.1153 8.24361 13.1186 8.39583 13.0208L10 12.0625Z" fill="currentcolor"/>
</svg>
