<svg width="19" height="19" viewBox="0 0 19 19" fill="none" xmlns="http://www.w3.org/2000/svg">
<path d="M18.0227 7.87498H9.69572V11.326H14.4877C14.0417 13.519 12.1747 14.779 9.69572 14.779C6.77272 14.779 4.41672 12.423 4.41672 9.49898C4.41672 6.57598 6.77272 4.21998 9.69572 4.21998C10.9547 4.21998 12.0927 4.66698 12.9857 5.39798L15.5857 2.79898C14.0017 1.41798 11.9707 0.565979 9.69572 0.565979C4.74172 0.565979 0.761719 4.54498 0.761719 9.49998C0.761719 14.455 4.74072 18.434 9.69572 18.434C14.1627 18.434 18.2247 15.185 18.2247 9.49998C18.2247 8.97198 18.1437 8.40298 18.0227 7.87498Z" fill="#DB4437"/>
</svg>
