<svg width="20" height="20" viewBox="0 0 20 20" fill="none" xmlns="http://www.w3.org/2000/svg">
<path d="M10 5C9.13088 5.0011 8.29767 5.34685 7.6831 5.96142C7.06853 6.57599 6.72278 7.4092 6.72168 8.27833H8.38835C8.38835 7.38917 9.11168 6.66667 10 6.66667C10.8883 6.66667 11.6117 7.38917 11.6117 8.27833C11.6117 8.77667 11.2108 9.13833 10.5983 9.63333C10.3983 9.79008 10.2061 9.95668 10.0225 10.1325C9.19085 10.9633 9.16668 11.8458 9.16668 11.9442V12.5H10.8333L10.8325 11.9725C10.8333 11.9592 10.86 11.6508 11.2 11.3117C11.325 11.1867 11.4825 11.0617 11.6458 10.93C12.295 10.4042 13.2775 9.61 13.2775 8.27833C13.2769 7.40921 12.9314 6.57587 12.3169 5.96123C11.7024 5.34659 10.8691 5.00088 10 5ZM9.16668 13.3333H10.8333V15H9.16668V13.3333Z" fill="currentcolor" fill-opacity="0.87"/>
<path d="M9.99999 1.66667C5.40499 1.66667 1.66666 5.40501 1.66666 10C1.66666 14.595 5.40499 18.3333 9.99999 18.3333C14.595 18.3333 18.3333 14.595 18.3333 10C18.3333 5.40501 14.595 1.66667 9.99999 1.66667ZM9.99999 16.6667C6.32416 16.6667 3.33332 13.6758 3.33332 10C3.33332 6.32417 6.32416 3.33334 9.99999 3.33334C13.6758 3.33334 16.6667 6.32417 16.6667 10C16.6667 13.6758 13.6758 16.6667 9.99999 16.6667Z" fill="currentcolor" fill-opacity="0.87"/>
</svg>
