<svg width="20" height="20" viewBox="0 0 20 20" fill="none" xmlns="http://www.w3.org/2000/svg">
<path d="M19.1668 8.33301C19.1668 7.89098 18.9912 7.46706 18.6787 7.1545C18.3661 6.84194 17.9422 6.66634 17.5002 6.66634H12.2335L13.0335 2.85801C13.0502 2.77467 13.0585 2.68301 13.0585 2.59134C13.0585 2.24967 12.9168 1.93301 12.6918 1.70801L11.8085 0.833008L6.32516 6.31634C6.01683 6.62467 5.8335 7.04134 5.8335 7.49967V15.833C5.8335 16.275 6.00909 16.699 6.32165 17.0115C6.63421 17.3241 7.05813 17.4997 7.50016 17.4997H15.0002C15.6918 17.4997 16.2835 17.083 16.5335 16.483L19.0502 10.608C19.1252 10.4163 19.1668 10.2163 19.1668 9.99967V8.33301ZM0.833496 17.4997H4.16683V7.49967H0.833496V17.4997Z" fill="currentcolor"/>
</svg>
