<svg width="33" height="32" viewBox="0 0 33 32" fill="none" xmlns="http://www.w3.org/2000/svg">
<path d="M4.49967 26.6668H28.4997V29.3335H4.49967V26.6668ZM28.4997 25.3335H4.49967L3.36234 10.4135C2.93052 10.2099 2.56128 9.89406 2.29318 9.49902C2.02508 9.10398 1.86795 8.64422 1.83819 8.16772C1.80844 7.69123 1.90715 7.21548 2.12403 6.79016C2.3409 6.36484 2.66799 6.00554 3.07112 5.74979C3.47426 5.49403 3.93867 5.35119 4.41586 5.33618C4.89304 5.32117 5.36551 5.43455 5.78392 5.66447C6.20233 5.8944 6.55134 6.23243 6.79451 6.64329C7.03768 7.05414 7.1661 7.52274 7.16634 8.00016C7.16619 8.13413 7.15549 8.26788 7.13434 8.40016L10.7837 11.3188L14.1997 5.3375C13.9585 4.93319 13.8318 4.47093 13.833 4.00016C13.833 3.29292 14.114 2.61464 14.6141 2.11454C15.1142 1.61445 15.7924 1.3335 16.4997 1.3335C17.2069 1.3335 17.8852 1.61445 18.3853 2.11454C18.8854 2.61464 19.1663 3.29292 19.1663 4.00016C19.1675 4.47153 19.0403 4.93432 18.7983 5.33883L22.209 11.3188L25.8637 8.39883C25.843 8.26695 25.8327 8.13365 25.833 8.00016C25.8333 7.52274 25.9617 7.05414 26.2048 6.64329C26.448 6.23243 26.797 5.8944 27.2154 5.66447C27.6338 5.43455 28.1063 5.32117 28.5835 5.33618C29.0607 5.35119 29.5251 5.49403 29.9282 5.74979C30.3314 6.00554 30.6584 6.36484 30.8753 6.79016C31.0922 7.21548 31.1909 7.69123 31.1612 8.16772C31.1314 8.64422 30.9743 9.10398 30.7062 9.49902C30.4381 9.89406 30.0688 10.2099 29.637 10.4135L28.4997 25.3335ZM7.05968 22.6668H25.9397L26.913 10.9735L21.4383 15.3482L16.4997 6.6895L11.553 15.3482L6.08634 10.9748L7.05968 22.6668Z" fill="white"/>
</svg>
