<svg width="24" height="24" viewBox="0 0 24 24" fill="none" xmlns="http://www.w3.org/2000/svg">
<path d="M20.3526 2.20117V9.52366H21.1514V2.20117H20.3526ZM19.5537 2.77765L15.4088 4.33135L19.5537 5.8846V2.77765ZM8.23274 5.35206C8.01085 5.35206 7.78008 5.45413 7.55375 5.66271C7.2786 5.92011 7.04339 6.33283 6.94132 6.82987C6.83925 7.33135 6.89694 7.8062 7.05227 8.14792C7.20759 8.49407 7.43392 8.69378 7.7002 8.74703C7.96647 8.80472 8.25049 8.70709 8.53008 8.45413C8.80079 8.19673 9.04043 7.78401 9.1425 7.28253C9.24014 6.78105 9.18244 6.3062 9.03156 5.96449C8.87623 5.61833 8.6499 5.42307 8.38363 5.36537C8.33481 5.3565 8.28156 5.35206 8.23274 5.35206ZM6.5286 8.83579C6.37771 8.88904 6.22239 8.94673 6.05375 9.01774C4.95094 9.71449 4.18097 10.4024 3.39813 11.4896C2.90153 12.1775 2.87712 13.3535 2.83984 14.2189L3.76292 14.6272C3.80153 13.3935 3.7789 12.8831 4.35182 12.1731C4.78807 11.6316 5.20966 11.0636 6.01824 10.8905C6.08925 12.1731 5.90286 14.1612 5.39694 16.1982C6.30671 16.3225 7.06558 16.1671 7.92653 15.9186C10.1765 14.7958 11.215 15.75 12.7771 17.9467L13.6869 16.5222C12.5952 15.2396 11.5345 13.1893 8.4857 13.9793C8.70759 12.7677 8.73422 11.9645 8.86735 10.7574C8.89398 10.2248 8.90286 9.69673 8.91617 9.17307C8.5212 9.47484 8.03304 9.6346 7.54043 9.53253C7.11884 9.44378 6.77268 9.18194 6.5286 8.83579ZM12.928 9.15975C12.1203 9.94969 11.9428 10.5355 10.7002 10.8639L9.70167 9.7988C9.68392 10.3669 9.66617 10.9482 9.61736 11.5384C10.039 11.9245 10.4694 12.2352 10.6248 12.1864C12.0138 11.7692 12.4132 11.2855 13.3496 10.3269L12.928 9.15975ZM19.0212 10.3225V14.5828H14.7608V18.8432H10.5005V22.3092C15.0404 22.318 17.9472 22.358 22.4827 22.389V10.3225H19.0212ZM7.1144 16.9305C6.51085 17.0414 5.88067 17.0769 5.18659 16.9704C4.7033 18.6346 3.99901 20.2677 3.03378 21.5192L4.74813 22.1982C5.94724 20.5163 6.38215 19.0651 7.1144 16.9305Z" fill="currentcolor"/>
</svg>
