<?xml version="1.0" encoding="utf-8"?>
<!-- Generator: Adobe Illustrator 27.7.0, SVG Export Plug-In . SVG Version: 6.00 Build 0)  -->
<svg version="1.1" xmlns="http://www.w3.org/2000/svg" xmlns:xlink="http://www.w3.org/1999/xlink" x="0px" y="0px"
	 viewBox="0 0 500 500" style="enable-background:new 0 0 500 500;" xml:space="preserve">
<style type="text/css">
	.st0{fill-rule:evenodd;clip-rule:evenodd;fill:#8489FF;}
	.st1{fill-rule:evenodd;clip-rule:evenodd;fill:url(#SVGID_1_);}
	.st2{fill-rule:evenodd;clip-rule:evenodd;fill:#0088FF;}
	.st3{fill-rule:evenodd;clip-rule:evenodd;fill:#857FB6;}
	.st4{fill-rule:evenodd;clip-rule:evenodd;fill:url(#SVGID_00000017492240230119946060000008810514615676414655_);}
	.st5{fill-rule:evenodd;clip-rule:evenodd;fill:#4E9FD0;}
	.st6{fill-rule:evenodd;clip-rule:evenodd;fill:#3F77AD;}
</style>
<g id="Layer_1">
	<path class="st0" d="M268.47,234.42c18.98,3.62,37.3-8.83,40.92-27.81c3.62-18.98-8.83-37.3-27.81-40.92
		c-18.98-3.62-37.3,8.83-40.92,27.81C237.04,212.48,249.49,230.8,268.47,234.42z"/>
	<linearGradient id="SVGID_1_" gradientUnits="userSpaceOnUse" x1="122.209" y1="443.5772" x2="445.3072" y2="147.1261">
		<stop  offset="0" style="stop-color:#2E7CC0"/>
		<stop  offset="1" style="stop-color:#86CEE1"/>
	</linearGradient>
	<path class="st1" d="M255.21,274.47c-12.43,14.79-10.51,36.86,4.29,49.29c14.8,12.43,36.86,10.51,49.29-4.29
		c12.43-14.8,10.51-36.86-4.29-49.29C289.7,257.75,267.63,259.67,255.21,274.47z"/>
	<path class="st2" d="M226.53,244.31c-6.46-18.21-26.45-27.74-44.66-21.28c-18.21,6.46-27.74,26.45-21.29,44.67
		c6.46,18.21,26.45,27.74,44.67,21.29C223.46,282.52,232.99,262.52,226.53,244.31z"/>
</g>
<g id="Layer_2">
	<path class="st0" d="M391.8,315.55c13.79-23.5,17.3-83.39-1.83-126.07C359.5,121.48,290.4,86.8,237.13,111.32
		c-46.68,21.48-77.76,69.36-75.9,112.15c13.75-40.9,55.16-67.97,90.88-70.24C369.53,145.75,395.42,271.36,391.8,315.55z"/>
	<path class="st3" d="M391.82,315.49c-0.02,0.03-0.02,0.05-0.02,0.05c3.62-44.19-22.28-169.78-139.69-162.32
		c-35.7,2.28-77.09,29.29-90.88,70.16c0.38-2.8,15.41-93.21,104.07-95.18c66.12-1.46,107.55,43.53,121.66,91.63
		C403.84,277.35,393.52,311.92,391.82,315.49z"/>
</g>
<g id="Layer_3">
	
		<linearGradient id="SVGID_00000089567607894584683850000017116458408742352288_" gradientUnits="userSpaceOnUse" x1="130.0127" y1="452.0841" x2="453.1096" y2="155.6342">
		<stop  offset="0" style="stop-color:#2E7CC0"/>
		<stop  offset="1" style="stop-color:#86CEE1"/>
	</linearGradient>
	<path style="fill-rule:evenodd;clip-rule:evenodd;fill:url(#SVGID_00000089567607894584683850000017116458408742352288_);" d="
		M124.19,342.49c13.77,23.51,64.33,55.82,110.92,59.96c74.21,6.6,138.22-36.77,142.84-95.22c4.05-51.22-22.57-101.73-60.81-120.99
		c28.98,31.97,32.38,81.33,16.92,113.61C283.24,405.96,160.98,367.22,124.19,342.49z"/>
	<path class="st5" d="M124.23,342.53c-0.02-0.03-0.04-0.04-0.04-0.04c36.79,24.73,159.04,63.45,209.85-42.65
		c15.45-32.27,12.08-81.58-16.86-113.57c2.26,1.7,73.82,58.96,32.25,137.29c-31,58.42-90.5,72.6-139.37,61.43
		C151.64,371.64,126.52,345.76,124.23,342.53z"/>
</g>
<g id="Layer_4">
	<path class="st2" d="M234.29,96.89c-27.25-0.04-80.72,27.17-107.9,65.23c-43.3,60.63-38.35,137.79,9.7,171.39
		c42.11,29.45,99.14,32.1,135.12,8.9c-42.25,8.78-86.52-13.3-106.52-42.99C98.97,201.84,194.32,116.07,234.29,96.89z"/>
	<path class="st6" d="M234.23,96.9c0.04,0,0.05-0.01,0.05-0.01c-39.97,19.18-135.3,104.95-69.59,202.52
		c19.99,29.67,64.21,51.75,106.45,43.02c-2.61,1.09-88.24,33.76-134.7-41.78c-34.65-56.33-16.72-114.81,17.67-151.28
		C195.24,105.78,230.29,97.24,234.23,96.9z"/>
</g>
</svg>
