<svg width="240" height="240" viewBox="0 0 240 240" fill="none" xmlns="http://www.w3.org/2000/svg">
<path d="M119.9 20C64.7 20 20 64.8 20 120C20 175.2 64.7 220 119.9 220C175.2 220 220 175.2 220 120C220 64.8 175.2 20 119.9 20ZM85 80C93.3 80 100 86.7 100 95C100 103.3 93.3 110 85 110C76.7 110 70 103.3 70 95C70 86.7 76.7 80 85 80ZM167.1 147.2C158 166.7 140.4 180 120 180C99.6 180 82 166.7 72.9 147.2C71.3 143.9 73.7 140 77.4 140H162.6C166.3 140 168.7 143.9 167.1 147.2ZM155 110C146.7 110 140 103.3 140 95C140 86.7 146.7 80 155 80C163.3 80 170 86.7 170 95C170 103.3 163.3 110 155 110Z" fill="#696CFF"/>
</svg>
