<svg width="20" height="24" viewBox="0 0 14 18" fill="none" xmlns="http://www.w3.org/2000/svg">
<path d="M7.00001 0.666504C4.70251 0.666504 2.83334 2.53567 2.83334 4.83317V6.49984H2.00001C1.08084 6.49984 0.333344 7.24734 0.333344 8.1665V15.6665C0.333344 16.5857 1.08084 17.3332 2.00001 17.3332H12C12.9192 17.3332 13.6667 16.5857 13.6667 15.6665V8.1665C13.6667 7.24734 12.9192 6.49984 12 6.49984H11.1667V4.83317C11.1667 2.53567 9.29751 0.666504 7.00001 0.666504ZM4.50001 4.83317C4.50001 3.45484 5.62168 2.33317 7.00001 2.33317C8.37834 2.33317 9.50001 3.45484 9.50001 4.83317V6.49984H4.50001V4.83317ZM12.0017 15.6665H7.83334V13.7682C8.32918 13.479 8.66668 12.9473 8.66668 12.3332C8.66668 11.414 7.91918 10.6665 7.00001 10.6665C6.08084 10.6665 5.33334 11.414 5.33334 12.3332C5.33334 12.9465 5.67084 13.479 6.16668 13.7682V15.6665H2.00001V8.1665H12L12.0017 15.6665Z" fill="currentcolor" fill-opacity="0.87"/>
</svg>
