<svg width="21" height="20" viewBox="0 0 21 20" fill="none" xmlns="http://www.w3.org/2000/svg">
<path d="M16.3334 6.66666H14.6667V9.16666H12.1667V10.8333H14.6667V13.3333H16.3334V10.8333H18.8334V9.16666H16.3334V6.66666ZM3.83341 6.66666C3.82315 7.10721 3.90236 7.54526 4.06624 7.95431C4.23012 8.36337 4.47528 8.73494 4.78687 9.04653C5.09847 9.35813 5.47004 9.60329 5.87909 9.76717C6.28815 9.93105 6.7262 10.0103 7.16675 9.99999C7.60729 10.0103 8.04534 9.93105 8.4544 9.76717C8.86346 9.60329 9.23502 9.35813 9.54662 9.04653C9.85822 8.73494 10.1034 8.36337 10.2673 7.95431C10.4311 7.54526 10.5103 7.10721 10.5001 6.66666C10.5103 6.22611 10.4311 5.78806 10.2673 5.37901C10.1034 4.96995 9.85822 4.59838 9.54662 4.28679C9.23502 3.97519 8.86346 3.73004 8.4544 3.56615C8.04534 3.40227 7.60729 3.32306 7.16675 3.33333C6.7262 3.32306 6.28815 3.40227 5.87909 3.56615C5.47004 3.73004 5.09847 3.97519 4.78687 4.28679C4.47528 4.59838 4.23012 4.96995 4.06624 5.37901C3.90236 5.78806 3.82315 6.22611 3.83341 6.66666ZM8.83342 6.66666C8.84413 6.88837 8.80836 7.10987 8.72839 7.31693C8.64843 7.52399 8.52604 7.71204 8.36908 7.869C8.21213 8.02595 8.02408 8.14834 7.81702 8.22831C7.60996 8.30827 7.38846 8.34404 7.16675 8.33333C6.94504 8.34404 6.72354 8.30827 6.51648 8.22831C6.30942 8.14834 6.12137 8.02595 5.96441 7.869C5.80746 7.71204 5.68507 7.52399 5.6051 7.31693C5.52514 7.10987 5.48936 6.88837 5.50008 6.66666C5.48936 6.44495 5.52514 6.22345 5.6051 6.01639C5.68507 5.80933 5.80746 5.62128 5.96441 5.46433C6.12137 5.30737 6.30942 5.18498 6.51648 5.10501C6.72354 5.02505 6.94504 4.98928 7.16675 4.99999C7.38846 4.98928 7.60996 5.02505 7.81702 5.10501C8.02408 5.18498 8.21213 5.30737 8.36908 5.46433C8.52604 5.62128 8.64843 5.80933 8.72839 6.01639C8.80836 6.22345 8.84413 6.44495 8.83342 6.66666V6.66666ZM3.83341 15C3.83341 14.337 4.09681 13.7011 4.56565 13.2322C5.03449 12.7634 5.67037 12.5 6.33341 12.5H8.00008C8.66312 12.5 9.29901 12.7634 9.76785 13.2322C10.2367 13.7011 10.5001 14.337 10.5001 15V15.8333H12.1667V15C12.1667 14.4528 12.059 13.911 11.8496 13.4055C11.6402 12.9 11.3333 12.4406 10.9464 12.0537C10.5594 11.6668 10.1001 11.3599 9.5946 11.1505C9.08907 10.9411 8.54726 10.8333 8.00008 10.8333H6.33341C5.22835 10.8333 4.16854 11.2723 3.38714 12.0537C2.60573 12.8351 2.16675 13.8949 2.16675 15V15.8333H3.83341V15Z" fill="currentcolor"/>
</svg>
