<svg width="21" height="20" viewBox="0 0 21 20" fill="none" xmlns="http://www.w3.org/2000/svg">
<path d="M17.4084 6.90834L13.8334 10.4833L12.7501 9.40834L11.5751 10.5917L13.8251 12.8417L18.5917 8.09168L17.4084 6.90834ZM3.83341 6.66668C3.82315 7.10722 3.90236 7.54527 4.06624 7.95433C4.23012 8.36339 4.47528 8.73495 4.78687 9.04655C5.09847 9.35815 5.47004 9.6033 5.87909 9.76718C6.28815 9.93107 6.7262 10.0103 7.16675 10C7.60729 10.0103 8.04534 9.93107 8.4544 9.76718C8.86346 9.6033 9.23502 9.35815 9.54662 9.04655C9.85822 8.73495 10.1034 8.36339 10.2673 7.95433C10.4311 7.54527 10.5103 7.10722 10.5001 6.66668C10.5103 6.22613 10.4311 5.78808 10.2673 5.37902C10.1034 4.96996 9.85822 4.5984 9.54662 4.2868C9.23502 3.97521 8.86346 3.73005 8.4544 3.56617C8.04534 3.40229 7.60729 3.32308 7.16675 3.33334C6.7262 3.32308 6.28815 3.40229 5.87909 3.56617C5.47004 3.73005 5.09847 3.97521 4.78687 4.2868C4.47528 4.5984 4.23012 4.96996 4.06624 5.37902C3.90236 5.78808 3.82315 6.22613 3.83341 6.66668ZM8.83341 6.66668C8.84413 6.88838 8.80836 7.10988 8.72839 7.31695C8.64843 7.52401 8.52604 7.71206 8.36908 7.86901C8.21213 8.02597 8.02408 8.14836 7.81702 8.22832C7.60996 8.30829 7.38846 8.34406 7.16675 8.33334C6.94504 8.34406 6.72354 8.30829 6.51648 8.22832C6.30942 8.14836 6.12137 8.02597 5.96441 7.86901C5.80746 7.71206 5.68507 7.52401 5.6051 7.31695C5.52514 7.10988 5.48936 6.88838 5.50008 6.66668C5.48936 6.44497 5.52514 6.22347 5.6051 6.01641C5.68507 5.80934 5.80746 5.62129 5.96441 5.46434C6.12137 5.30739 6.30942 5.185 6.51648 5.10503C6.72354 5.02506 6.94504 4.98929 7.16675 5.00001C7.38846 4.98929 7.60996 5.02506 7.81702 5.10503C8.02408 5.185 8.21213 5.30739 8.36908 5.46434C8.52604 5.62129 8.64843 5.80934 8.72839 6.01641C8.80836 6.22347 8.84413 6.44497 8.83341 6.66668ZM3.83341 15C3.83341 14.337 4.09681 13.7011 4.56565 13.2322C5.03449 12.7634 5.67037 12.5 6.33341 12.5H8.00008C8.66312 12.5 9.29901 12.7634 9.76785 13.2322C10.2367 13.7011 10.5001 14.337 10.5001 15V15.8333H12.1667V15C12.1667 14.4528 12.059 13.911 11.8496 13.4055C11.6402 12.9 11.3333 12.4406 10.9464 12.0537C10.5594 11.6668 10.1001 11.3599 9.5946 11.1505C9.08907 10.9411 8.54726 10.8333 8.00008 10.8333H6.33341C5.22835 10.8333 4.16854 11.2723 3.38714 12.0537C2.60573 12.8351 2.16675 13.8949 2.16675 15V15.8333H3.83341V15Z" fill="currentcolor" fill-opacity="0.54"/>
</svg>
