<svg width="24" height="24" viewBox="0 0 24 24" fill="none" xmlns="http://www.w3.org/2000/svg">
<path d="M16.57 22C16.8356 22.0016 17.0989 21.9502 17.3444 21.8489C17.5899 21.7476 17.8128 21.5984 18 21.41L20.71 18.7C20.8963 18.5127 21.0008 18.2592 21.0008 17.995C21.0008 17.7308 20.8963 17.4774 20.71 17.29L16.71 13.29C16.5227 13.1038 16.2692 12.9992 16.005 12.9992C15.7408 12.9992 15.4874 13.1038 15.3 13.29L13.7 14.88C12.5923 14.5847 11.5663 14.0409 10.7 13.29C9.95115 12.4223 9.40766 11.3969 9.11003 10.29L10.7 8.69002C10.8863 8.50266 10.9908 8.24921 10.9908 7.98502C10.9908 7.72083 10.8863 7.46738 10.7 7.28002L6.70003 3.28002C6.51267 3.09377 6.25922 2.98923 5.99503 2.98923C5.73085 2.98923 5.4774 3.09377 5.29003 3.28002L2.59003 6.00002C2.40167 6.18726 2.25248 6.41015 2.15118 6.65567C2.04988 6.90119 1.9985 7.16443 2.00003 7.43002C2.09076 11.2723 3.62611 14.9393 6.30003 17.7C9.06075 20.3739 12.7277 21.9093 16.57 22ZM6.00003 5.41002L8.59003 8.00002L7.30003 9.29002C7.17785 9.40447 7.08636 9.54776 7.03395 9.70675C6.98153 9.86574 6.96987 10.0353 7.00003 10.2C7.3738 11.8704 8.16514 13.4187 9.30003 14.7C10.5804 15.8364 12.1291 16.6279 13.8 17C13.9622 17.0339 14.1303 17.027 14.2891 16.9799C14.4479 16.9327 14.5926 16.8469 14.71 16.73L16 15.41L18.59 18L16.59 20C13.2738 19.9146 10.1095 18.5912 7.72003 16.29C5.41295 13.8995 4.08564 10.7311 4.00003 7.41002L6.00003 5.41002ZM20 11H22C22.026 9.81102 21.8109 8.62908 21.3678 7.52543C20.9247 6.42177 20.2627 5.41926 19.4217 4.57831C18.5808 3.73736 17.5783 3.07538 16.4746 2.63227C15.371 2.18916 14.189 1.97409 13 2.00002V4.00002C13.9279 3.96792 14.8525 4.12703 15.7163 4.46745C16.5801 4.80788 17.3647 5.32234 18.0212 5.97886C18.6777 6.63538 19.1922 7.41992 19.5326 8.28372C19.873 9.14752 20.0321 10.0721 20 11Z" fill="currentcolor"/>
<path d="M13 8C15.1 8 16 8.9 16 11H18C18 7.78 16.22 6 13 6V8Z" fill="currentcolor"/>
</svg>
