<svg width="80" height="80" viewBox="0 0 80 80" fill="none" xmlns="http://www.w3.org/2000/svg">
<path d="M21.3337 58.6667H58.667V63.3333H21.3337V58.6667ZM61.0003 23.6667C60.3815 23.6667 59.788 23.9125 59.3504 24.3501C58.9128 24.7877 58.667 25.3812 58.667 26C58.6673 26.2653 58.718 26.5282 58.8163 26.7747C58.9125 27.013 59.0439 27.2356 59.206 27.435L54.2593 31.383L49.3197 35.3333L45.227 28.163L41.139 20.995C41.4897 20.7959 41.7855 20.5129 42 20.1713C42.2189 19.8199 42.3345 19.414 42.3337 19C42.3337 18.3812 42.0878 17.7877 41.6502 17.3501C41.2127 16.9125 40.6192 16.6667 40.0003 16.6667C39.3815 16.6667 38.788 16.9125 38.3504 17.3501C37.9128 17.7877 37.667 18.3812 37.667 19C37.6662 19.414 37.7818 19.8199 38.0007 20.1713C38.2152 20.5128 38.511 20.7958 38.8617 20.995L34.7667 28.163L30.6717 35.3333L25.7343 31.3853L20.7947 27.435C20.9568 27.2356 21.0881 27.013 21.1843 26.7747C21.2827 26.5282 21.3333 26.2653 21.3337 26C21.3337 25.5385 21.1968 25.0874 20.9404 24.7037C20.684 24.32 20.3196 24.0209 19.8933 23.8443C19.4669 23.6677 18.9977 23.6215 18.5451 23.7115C18.0925 23.8015 17.6767 24.0238 17.3504 24.3501C17.0241 24.6764 16.8019 25.0922 16.7118 25.5448C16.6218 25.9974 16.668 26.4666 16.8446 26.8929C17.0212 27.3193 17.3203 27.6837 17.704 27.9401C18.0877 28.1965 18.5388 28.3333 19.0003 28.3333C19.0328 28.3325 19.065 28.327 19.096 28.317C19.127 28.3061 19.1591 28.2982 19.1917 28.2937L20.2627 41.148L21.3337 54H58.667L59.738 41.148L60.809 28.2937C60.8408 28.2984 60.8721 28.3062 60.9023 28.317C60.934 28.3272 60.967 28.3327 61.0003 28.3333C61.6192 28.3333 62.2127 28.0875 62.6502 27.6499C63.0878 27.2123 63.3337 26.6188 63.3337 26C63.3337 25.3812 63.0878 24.7877 62.6502 24.3501C62.2127 23.9125 61.6192 23.6667 61.0003 23.6667Z" fill="#FF4E4D"/>
<path d="M0 40C0 17.9086 17.9086 0 40 0C62.0914 0 80 17.9086 80 40C80 62.0914 62.0914 80 40 80C17.9086 80 0 62.0914 0 40Z" fill="#FF4E4D" fill-opacity="0.15"/>
</svg>
