<svg width="20" height="20" viewBox="0 0 20 20" fill="none" xmlns="http://www.w3.org/2000/svg">
<path d="M9.99999 13.3333C11.8383 13.3333 13.3333 11.8383 13.3333 9.99999C13.3333 8.16166 11.8383 6.66666 9.99999 6.66666C8.16166 6.66666 6.66666 8.16166 6.66666 9.99999C6.66666 11.8383 8.16166 13.3333 9.99999 13.3333ZM9.99999 8.33332C10.9033 8.33332 11.6667 9.09666 11.6667 9.99999C11.6667 10.9033 10.9033 11.6667 9.99999 11.6667C9.09666 11.6667 8.33332 10.9033 8.33332 9.99999C8.33332 9.09666 9.09666 8.33332 9.99999 8.33332Z" fill="currentcolor" fill-opacity="0.87"/>
<path d="M2.37084 13.4467L3.20417 14.8883C3.64667 15.6525 4.71167 15.9392 5.47917 15.4967L5.92 15.2417C6.40212 15.6209 6.93368 15.9327 7.5 16.1683V16.6667C7.5 17.5858 8.2475 18.3333 9.16667 18.3333H10.8333C11.7525 18.3333 12.5 17.5858 12.5 16.6667V16.1683C13.0661 15.9326 13.5977 15.6212 14.08 15.2425L14.5208 15.4975C15.29 15.9392 16.3525 15.6542 16.7967 14.8883L17.6292 13.4475C17.85 13.0647 17.9099 12.61 17.7957 12.1831C17.6815 11.7562 17.4025 11.3921 17.02 11.1708L16.5992 10.9275C16.6886 10.313 16.6886 9.68869 16.5992 9.07416L17.02 8.83082C17.4023 8.60935 17.6812 8.24527 17.7954 7.81845C17.9096 7.39164 17.8498 6.93696 17.6292 6.55416L16.7967 5.11332C16.3542 4.34666 15.29 4.05916 14.5208 4.50332L14.08 4.75832C13.5979 4.37908 13.0663 4.06732 12.5 3.83166V3.33332C12.5 2.41416 11.7525 1.66666 10.8333 1.66666H9.16667C8.2475 1.66666 7.5 2.41416 7.5 3.33332V3.83166C6.93387 4.06736 6.40235 4.37881 5.92 4.75749L5.47917 4.50249C4.70917 4.05999 3.64584 4.34666 3.20334 5.11249L2.37084 6.55332C2.14999 6.93607 2.09009 7.39083 2.20431 7.81771C2.31853 8.24459 2.59752 8.60867 2.98 8.82999L3.40084 9.07332C3.31103 9.68756 3.31103 10.3116 3.40084 10.9258L2.98 11.1692C2.59764 11.3908 2.31878 11.755 2.20458 12.182C2.09038 12.6089 2.15017 13.0637 2.37084 13.4467ZM5.1425 11.1483C5.04841 10.7728 5.00055 10.3871 5 9.99999C5 9.61499 5.04834 9.22832 5.14167 8.85166C5.18562 8.6761 5.17116 8.491 5.10049 8.32439C5.02982 8.15778 4.90678 8.01874 4.75 7.92832L3.81417 7.38666L4.64583 5.94582L5.6 6.49749C5.75561 6.58753 5.93622 6.62467 6.11473 6.60333C6.29323 6.582 6.46 6.50333 6.59 6.37916C7.15377 5.84295 7.83361 5.444 8.57667 5.21332C8.74735 5.16121 8.8968 5.05568 9.00302 4.91226C9.10923 4.76885 9.16659 4.59512 9.16667 4.41666V3.33332H10.8333V4.41666C10.8334 4.59512 10.8908 4.76885 10.997 4.91226C11.1032 5.05568 11.2526 5.16121 11.4233 5.21332C12.1662 5.44433 12.846 5.84324 13.41 6.37916C13.5401 6.50309 13.7069 6.58159 13.8853 6.60292C14.0638 6.62425 14.2443 6.58726 14.4 6.49749L15.3533 5.94666L16.1867 7.38749L15.25 7.92832C15.0933 8.01884 14.9704 8.15789 14.8997 8.32447C14.829 8.49105 14.8145 8.6761 14.8583 8.85166C14.9517 9.22832 15 9.61499 15 9.99999C15 10.3842 14.9517 10.7708 14.8575 11.1483C14.8138 11.324 14.8284 11.5091 14.8992 11.6757C14.97 11.8423 15.0932 11.9813 15.25 12.0717L16.1858 12.6125L15.3542 14.0533L14.4 13.5025C14.2444 13.4123 14.0638 13.3751 13.8853 13.3964C13.7067 13.4178 13.5399 13.4965 13.41 13.6208C12.8462 14.157 12.1664 14.556 11.4233 14.7867C11.2526 14.8388 11.1032 14.9443 10.997 15.0877C10.8908 15.2311 10.8334 15.4049 10.8333 15.5833L10.835 16.6667H9.16667V15.5833C9.16659 15.4049 9.10923 15.2311 9.00302 15.0877C8.8968 14.9443 8.74735 14.8388 8.57667 14.7867C7.83376 14.5556 7.15399 14.1567 6.59 13.6208C6.46025 13.4962 6.29338 13.4172 6.11471 13.396C5.93604 13.3748 5.75532 13.4125 5.6 13.5033L4.64667 14.055L3.81334 12.6142L4.75 12.0717C4.90683 11.9813 5.02996 11.8423 5.10078 11.6757C5.17159 11.5091 5.18624 11.324 5.1425 11.1483Z" fill="currentcolor" fill-opacity="0.87"/>
</svg>
