<svg width="16" height="16" viewBox="0 0 16 16" fill="none" xmlns="http://www.w3.org/2000/svg">
<path d="M12 14.6666C11.4444 14.6666 10.9722 14.4721 10.5833 14.0833C10.1944 13.6944 10 13.2221 10 12.6666C10 12.5888 10.0056 12.5081 10.0167 12.4246C10.0278 12.341 10.0444 12.2661 10.0667 12.1999L5.36667 9.46658C5.17778 9.63325 4.96667 9.76392 4.73333 9.85858C4.5 9.95325 4.25556 10.0004 4 9.99992C3.44444 9.99992 2.97222 9.80547 2.58333 9.41658C2.19444 9.0277 2 8.55547 2 7.99992C2 7.44436 2.19444 6.97214 2.58333 6.58325C2.97222 6.19436 3.44444 5.99992 4 5.99992C4.25556 5.99992 4.5 6.04725 4.73333 6.14192C4.96667 6.23659 5.17778 6.36703 5.36667 6.53325L10.0667 3.79992C10.0444 3.73325 10.0278 3.65836 10.0167 3.57525C10.0056 3.49214 10 3.41147 10 3.33325C10 2.7777 10.1944 2.30547 10.5833 1.91659C10.9722 1.5277 11.4444 1.33325 12 1.33325C12.5556 1.33325 13.0278 1.5277 13.4167 1.91659C13.8056 2.30547 14 2.7777 14 3.33325C14 3.88881 13.8056 4.36103 13.4167 4.74992C13.0278 5.13881 12.5556 5.33325 12 5.33325C11.7444 5.33325 11.5 5.28614 11.2667 5.19192C11.0333 5.0977 10.8222 4.96703 10.6333 4.79992L5.93333 7.53325C5.95556 7.59992 5.97222 7.67503 5.98333 7.75858C5.99444 7.84214 6 7.92259 6 7.99992C6 8.0777 5.99444 8.15836 5.98333 8.24192C5.97222 8.32547 5.95556 8.40036 5.93333 8.46658L10.6333 11.1999C10.8222 11.0333 11.0333 10.9028 11.2667 10.8086C11.5 10.7144 11.7444 10.667 12 10.6666C12.5556 10.6666 13.0278 10.861 13.4167 11.2499C13.8056 11.6388 14 12.111 14 12.6666C14 13.2221 13.8056 13.6944 13.4167 14.0833C13.0278 14.4721 12.5556 14.6666 12 14.6666ZM12 3.99992C12.1889 3.99992 12.3473 3.93592 12.4753 3.80792C12.6033 3.67992 12.6671 3.5217 12.6667 3.33325C12.6667 3.14436 12.6027 2.98592 12.4747 2.85792C12.3467 2.72992 12.1884 2.66614 12 2.66659C11.8111 2.66659 11.6527 2.73059 11.5247 2.85859C11.3967 2.98659 11.3329 3.14481 11.3333 3.33325C11.3333 3.52214 11.3973 3.68058 11.5253 3.80858C11.6533 3.93658 11.8116 4.00036 12 3.99992ZM4 8.66658C4.18889 8.66658 4.34733 8.60258 4.47533 8.47458C4.60333 8.34658 4.66711 8.18836 4.66667 7.99992C4.66667 7.81103 4.60267 7.65258 4.47467 7.52458C4.34667 7.39658 4.18844 7.33281 4 7.33325C3.81111 7.33325 3.65267 7.39725 3.52467 7.52525C3.39667 7.65325 3.33289 7.81147 3.33333 7.99992C3.33333 8.18881 3.39733 8.34725 3.52533 8.47525C3.65333 8.60325 3.81156 8.66703 4 8.66658ZM12 13.3333C12.1889 13.3333 12.3473 13.2693 12.4753 13.1413C12.6033 13.0133 12.6671 12.855 12.6667 12.6666C12.6667 12.4777 12.6027 12.3193 12.4747 12.1913C12.3467 12.0633 12.1884 11.9995 12 11.9999C11.8111 11.9999 11.6527 12.0639 11.5247 12.1919C11.3967 12.3199 11.3329 12.4781 11.3333 12.6666C11.3333 12.8555 11.3973 13.0139 11.5253 13.1419C11.6533 13.2699 11.8116 13.3337 12 13.3333Z" fill="currentcolor"/>
</svg>
