<svg width="24" height="24" viewBox="0 0 24 24" fill="none" xmlns="http://www.w3.org/2000/svg">
<path d="M11.857 17.417C8.90999 17.417 7.56299 15.893 7.56299 14.776C7.56299 14.51 7.67099 14.255 7.86099 14.071C7.95476 13.9805 8.06623 13.9103 8.18841 13.8648C8.31059 13.8194 8.44084 13.7997 8.57099 13.807C9.83199 13.807 9.50199 15.727 11.857 15.727C13.06 15.727 13.767 14.991 13.767 14.302C13.767 13.887 13.533 13.413 12.739 13.223L10.11 12.55C7.99899 12.005 7.63099 10.813 7.63099 9.70801C7.63099 7.41501 9.69899 6.58401 11.667 6.58401C13.481 6.58401 15.637 7.60001 15.637 8.97501C15.637 9.56701 15.149 9.88501 14.582 9.88501C13.504 9.88501 13.685 8.34901 11.519 8.34901C10.442 8.34901 9.87399 8.86201 9.87399 9.57901C9.87399 10.296 10.713 10.539 11.448 10.702L13.389 11.147C15.515 11.633 16.08 12.898 16.08 14.11C16.08 15.975 14.657 17.415 11.854 17.415L11.857 17.417ZM19.993 13.473C20.079 12.983 20.121 12.487 20.121 11.991C20.1278 10.7624 19.8673 9.54699 19.3576 8.42909C18.8478 7.31118 18.101 6.31752 17.169 5.51701C16.2458 4.72391 15.1579 4.14595 13.9839 3.82496C12.8099 3.50397 11.5793 3.44797 10.381 3.66101C9.63923 3.2264 8.79469 2.99817 7.93499 3.00001C7.0647 3.00781 6.21182 3.24474 5.46222 3.68695C4.71261 4.12917 4.09274 4.76106 3.66499 5.51901C3.2317 6.28244 3.00268 7.14473 3.00005 8.02254C2.99743 8.90035 3.22128 9.764 3.64999 10.53C3.40915 11.8643 3.4906 13.2367 3.88753 14.5331C4.28447 15.8295 4.98542 17.0123 5.93199 17.983C6.86952 18.9438 8.02785 19.6608 9.30601 20.0712C10.5842 20.4817 11.9433 20.5733 13.265 20.338C14.0059 20.7722 14.8492 21.0008 15.708 21C16.578 20.9921 17.4306 20.7553 18.18 20.3133C18.9294 19.8712 19.5492 19.2396 19.977 18.482C20.4108 17.7192 20.6402 16.8572 20.643 15.9796C20.6458 15.102 20.4219 14.2386 19.993 13.473Z" fill="#32475C" fill-opacity="0.6"/>
</svg>
