<svg width="16" height="16" viewBox="0 0 16 16" fill="none" xmlns="http://www.w3.org/2000/svg">
<path d="M3.33341 6.00008V14.0001H0.666748V6.00008H3.33341ZM6.00008 14.0001C5.64646 14.0001 5.30732 13.8596 5.05727 13.6096C4.80722 13.3595 4.66675 13.0204 4.66675 12.6667V6.00008C4.66675 5.63341 4.81341 5.30008 5.06008 5.06008L9.44675 0.666748L10.1534 1.37341C10.3334 1.55341 10.4467 1.80008 10.4467 2.07341L10.4267 2.28675L9.79341 5.33341H14.0001C14.3537 5.33341 14.6928 5.47389 14.9429 5.72394C15.1929 5.97399 15.3334 6.31313 15.3334 6.66675V8.00008C15.3334 8.17341 15.3001 8.33341 15.2401 8.48675L13.2267 13.1867C13.0267 13.6667 12.5534 14.0001 12.0001 14.0001H6.00008ZM6.00008 12.6667H12.0201L14.0001 8.00008V6.66675H8.14008L8.89341 3.12008L6.00008 6.02008V12.6667Z" fill="currentcolor"/>
</svg>
