<svg width="20" height="17" viewBox="0 0 20 17" fill="none" xmlns="http://www.w3.org/2000/svg">
<path d="M17.7443 4.49698C17.7573 4.67198 17.7573 4.84598 17.7573 5.01998C17.7573 10.345 13.7043 16.481 6.29733 16.481C4.01533 16.481 1.89533 15.82 0.111328 14.672C0.435328 14.709 0.747328 14.722 1.08433 14.722C2.96733 14.722 4.70033 14.086 6.08533 13.001C4.31433 12.964 2.83033 11.804 2.31833 10.208C2.56733 10.245 2.81733 10.27 3.07933 10.27C3.44033 10.27 3.80333 10.22 4.14033 10.133C2.29333 9.75898 0.910328 8.13798 0.910328 6.17998V6.12998C1.44733 6.42898 2.07033 6.61598 2.73033 6.64098C1.64533 5.91898 0.934328 4.68398 0.934328 3.28698C0.934328 2.53898 1.13333 1.85298 1.48233 1.25498C3.46533 3.69798 6.44633 5.29498 9.78833 5.46998C9.72633 5.16998 9.68833 4.85898 9.68833 4.54698C9.68833 2.32698 11.4843 0.518982 13.7163 0.518982C14.8763 0.518982 15.9233 1.00498 16.6593 1.79098C17.5693 1.61598 18.4413 1.27898 19.2153 0.817982C18.9163 1.75298 18.2793 2.53898 17.4443 3.03798C18.2553 2.94998 19.0413 2.72598 19.7633 2.41398C19.2153 3.21198 18.5303 3.92298 17.7443 4.49698Z" fill="#1DA1F2"/>
</svg>
