<svg width="32" height="32" viewBox="0 0 32 32" fill="none" xmlns="http://www.w3.org/2000/svg">
<path d="M11.044 27.0173C21.1066 27.0173 26.612 18.6719 26.612 11.4479C26.612 11.2133 26.612 10.9786 26.6013 10.7439C27.6734 9.96702 28.5985 9.00533 29.3333 7.90392C28.3328 8.34597 27.2724 8.63757 26.1866 8.76925C27.3307 8.08431 28.1873 7.00741 28.5973 5.73859C27.522 6.37653 26.3447 6.82442 25.1173 7.06259C24.6063 6.51669 23.9887 6.08153 23.3028 5.78406C22.6168 5.48659 21.877 5.33315 21.1293 5.33325C19.6776 5.33431 18.2858 5.91144 17.2593 6.93791C16.2328 7.96438 15.6557 9.35627 15.6546 10.8079C15.6546 11.2346 15.708 11.6506 15.7933 12.0559C13.6171 11.9466 11.4883 11.3809 9.54501 10.3955C7.6017 9.41004 5.88736 8.02692 4.51329 6.33592C3.815 7.54199 3.60184 8.96859 3.91707 10.3261C4.23231 11.6836 5.05232 12.8703 6.21063 13.6453C5.34273 13.6152 4.49408 13.3813 3.73329 12.9626V13.0373C3.73447 14.3003 4.1716 15.5243 4.97084 16.5023C5.77008 17.4803 6.88243 18.1525 8.11996 18.4053C7.65096 18.5346 7.16647 18.5992 6.67996 18.5973C6.32663 18.5973 5.98529 18.5653 5.65329 18.5013C6.00214 19.589 6.68265 20.5403 7.5994 21.2217C8.51615 21.9032 9.62319 22.2807 10.7653 22.3013C8.82736 23.8247 6.43298 24.6513 3.96796 24.6479C3.53063 24.6479 3.09329 24.6266 2.66663 24.5733C5.16891 26.17 8.0756 27.018 11.044 27.0173Z" fill="#8592A3"/>
</svg>
