<svg width="24" height="24" viewBox="0 0 24 24" fill="none" xmlns="http://www.w3.org/2000/svg">
<path d="M12 15.9998C11.7167 15.9998 11.479 15.9038 11.287 15.7118C11.095 15.5198 10.9993 15.2825 11 14.9998V7.8498L9.125 9.7248C8.925 9.9248 8.69167 10.0248 8.425 10.0248C8.15834 10.0248 7.91667 9.91647 7.7 9.6998C7.5 9.4998 7.40434 9.26247 7.413 8.9878C7.42167 8.71314 7.51733 8.4838 7.7 8.2998L11.3 4.6998C11.4 4.5998 11.5083 4.52914 11.625 4.4878C11.7417 4.44647 11.8667 4.42547 12 4.4248C12.1333 4.4248 12.2583 4.4458 12.375 4.4878C12.4917 4.5298 12.6 4.60047 12.7 4.6998L16.3 8.2998C16.5 8.4998 16.596 8.73747 16.588 9.0128C16.58 9.28814 16.484 9.51714 16.3 9.6998C16.1 9.8998 15.8623 10.0041 15.587 10.0128C15.3117 10.0215 15.0743 9.92547 14.875 9.7248L13 7.8498V14.9998C13 15.2831 12.904 15.5208 12.712 15.7128C12.52 15.9048 12.2827 16.0005 12 15.9998ZM6 19.9998C5.45 19.9998 4.979 19.8038 4.587 19.4118C4.195 19.0198 3.99934 18.5491 4 17.9998V15.9998C4 15.7165 4.096 15.4788 4.288 15.2868C4.48 15.0948 4.71733 14.9991 5 14.9998C5.28333 14.9998 5.521 15.0958 5.713 15.2878C5.905 15.4798 6.00067 15.7171 6 15.9998V17.9998H18V15.9998C18 15.7165 18.096 15.4788 18.288 15.2868C18.48 15.0948 18.7173 14.9991 19 14.9998C19.2833 14.9998 19.521 15.0958 19.713 15.2878C19.905 15.4798 20.0007 15.7171 20 15.9998V17.9998C20 18.5498 19.804 19.0208 19.412 19.4128C19.02 19.8048 18.5493 20.0005 18 19.9998H6Z" fill="#A2A2A3"/>
</svg>
