<svg width="23" height="23" viewBox="0 0 23 23" fill="none" xmlns="http://www.w3.org/2000/svg">
<g clip-path="url(#clip0_207_11924)">
<path d="M12.5269 8.15976L14.1629 10.6137C14.515 11.1477 15.3103 11.568 15.9465 11.568H19.3434V9.29585H15.9352L14.2992 6.84189C13.8617 6.22646 13.3241 5.68882 12.7087 5.25135L11.209 4.25159C10.9186 4.07729 10.5879 3.98146 10.2493 3.9735C9.91075 3.96553 9.57591 4.0457 9.27765 4.20615L4.57422 7.02366V12.7041H6.84641V8.15976L9.1186 7.02366L5.71031 22.929H7.9825L10.6523 14.2379L12.5269 16.1124V22.929H14.7991V13.8402L11.7316 10.7728L12.5269 8.15976ZM13.663 4.75147C14.2656 4.75147 14.8435 4.51208 15.2697 4.08596C15.6958 3.65984 15.9352 3.0819 15.9352 2.47928C15.9352 1.87666 15.6958 1.29872 15.2697 0.872601C14.8435 0.446483 14.2656 0.207092 13.663 0.207092C13.0604 0.207092 12.4824 0.446483 12.0563 0.872601C11.6302 1.29872 11.3908 1.87666 11.3908 2.47928C11.3908 3.0819 11.6302 3.65984 12.0563 4.08596C12.4824 4.51208 13.0604 4.75147 13.663 4.75147Z" fill="currentcolor"/>
</g>
<defs>
<clipPath id="clip0_207_11924">
<rect width="22.7219" height="22.7219" fill="white" transform="translate(0.03125 0.207062)"/>
</clipPath>
</defs>
</svg>
