<svg width="24" height="24" viewBox="0 0 24 24" fill="none" xmlns="http://www.w3.org/2000/svg">
<path d="M19.7916 4.13676H19.7902L22.1703 4.6125C22.2981 4.63806 22.4032 4.73179 22.4401 4.85818C22.4588 4.91958 22.4605 4.98488 22.445 5.04714C22.4295 5.10941 22.3974 5.16631 22.3521 5.21179L20.4023 7.16303C20.169 7.39589 19.8528 7.52664 19.5232 7.52658H17.9071L13.8456 11.5895C13.9231 11.8821 13.9373 12.1878 13.8874 12.4864C13.8375 12.7849 13.7245 13.0693 13.556 13.3208C13.3875 13.5722 13.1674 13.7848 12.9103 13.9445C12.6532 14.1042 12.365 14.2072 12.0649 14.2468C11.7648 14.2864 11.4598 14.2615 11.1701 14.174C10.8803 14.0864 10.6126 13.9381 10.3847 13.7389C10.1568 13.5398 9.97396 13.2943 9.84835 13.019C9.72274 12.7436 9.65725 12.4446 9.65625 12.142C9.65646 11.8152 9.73181 11.4928 9.87646 11.1998C10.0211 10.9068 10.2312 10.6509 10.4905 10.4521C10.7498 10.2532 11.0513 10.1165 11.3718 10.0528C11.6923 9.98898 12.0232 9.99975 12.3389 10.0842L16.4018 6.01984V4.40516C16.4018 4.0757 16.5325 3.75901 16.7654 3.52611L18.7166 1.57487C18.7621 1.52961 18.819 1.49752 18.8812 1.48202C18.9435 1.46651 19.0088 1.46817 19.0702 1.48682C19.1966 1.52374 19.2903 1.62883 19.3159 1.75664L19.7916 4.13676Z" fill="currentcolor"/>
<path d="M3.26622 12.1419C3.26767 13.3603 3.53042 14.5642 4.03673 15.6725C4.54303 16.7807 5.28112 17.7675 6.20121 18.5662C7.1213 19.3649 8.20198 19.957 9.37036 20.3026C10.5387 20.6481 11.7676 20.7391 12.9742 20.5693C14.1807 20.3995 15.3368 19.973 16.3644 19.3184C17.3921 18.6639 18.2674 17.7965 18.9313 16.7749C19.5953 15.7533 20.0324 14.6012 20.2133 13.3963C20.3941 12.1914 20.3144 10.9617 19.9796 9.7902C19.9326 9.65334 19.9139 9.50834 19.9247 9.36403C19.9355 9.21972 19.9756 9.07912 20.0425 8.95079C20.1094 8.82246 20.2017 8.70909 20.3138 8.61758C20.4259 8.52606 20.5555 8.45832 20.6946 8.41848C20.8337 8.37863 20.9795 8.36752 21.1231 8.38581C21.2666 8.4041 21.4049 8.45141 21.5296 8.52487C21.6543 8.59833 21.7627 8.69639 21.8483 8.8131C21.9339 8.9298 21.9948 9.06269 22.0274 9.2037C22.6757 11.4724 22.5526 13.8921 21.6773 16.0832C20.802 18.2744 19.224 20.1129 17.1911 21.3105C15.1581 22.5081 12.785 22.9969 10.4443 22.7002C8.1035 22.4036 5.92743 21.3382 4.25746 19.6714C2.58931 18.0018 1.52284 15.8256 1.22551 13.4842C0.92818 11.1429 1.41681 8.76916 2.6147 6.73563C3.81258 4.70211 5.65188 3.12397 7.84382 2.24901C10.0358 1.37404 12.4562 1.25179 14.7251 1.90145C14.9953 1.98042 15.2232 2.16313 15.3591 2.40964C15.495 2.65615 15.5277 2.94642 15.4502 3.21701C15.3727 3.4876 15.1913 3.71652 14.9455 3.85372C14.6997 3.99093 14.4096 4.02528 14.1386 3.94926C12.8699 3.58523 11.5339 3.5209 10.236 3.76133C8.93817 4.00176 7.71389 4.54037 6.65972 5.33472C5.60555 6.12907 4.7503 7.15743 4.1614 8.33873C3.5725 9.52003 3.26606 10.822 3.26622 12.1419Z" fill="currentcolor"/>
<path d="M7.52929 12.142C7.52938 12.9182 7.74139 13.6797 8.14245 14.3442C8.54351 15.0088 9.11841 15.5513 9.80513 15.9131C10.4919 16.275 11.2643 16.4425 12.0393 16.3975C12.8142 16.3526 13.5621 16.097 14.2024 15.6582C14.8426 15.2183 15.3503 14.6117 15.6707 13.9041C15.9911 13.1965 16.112 12.4148 16.0202 11.6435C15.9954 11.4563 16.0209 11.2659 16.0941 11.0919C16.1673 10.9179 16.2856 10.7665 16.4368 10.6534C16.5879 10.5403 16.7665 10.4695 16.9541 10.4483C17.1418 10.4271 17.3316 10.4564 17.5042 10.533C17.6767 10.6086 17.8261 10.7286 17.9371 10.8808C18.0482 11.033 18.1168 11.2119 18.1362 11.3992C18.2905 12.7173 18.0306 14.0506 17.3927 15.2143C16.7548 16.3779 15.7705 17.3141 14.5764 17.8929C13.3823 18.4717 12.0376 18.6645 10.729 18.4443C9.42032 18.2242 8.21267 17.6022 7.27362 16.6646C6.33457 15.7269 5.71069 14.5202 5.48859 13.2119C5.26648 11.9036 5.45717 10.5586 6.03417 9.36364C6.61118 8.16864 7.54588 7.1829 8.70855 6.54324C9.87122 5.90358 11.2042 5.64173 12.5224 5.79404C12.6636 5.80713 12.8007 5.84828 12.9257 5.91505C13.0508 5.98183 13.1612 6.0729 13.2506 6.18292C13.34 6.29294 13.4066 6.41969 13.4463 6.55576C13.4861 6.69182 13.4983 6.83446 13.4822 6.97531C13.4662 7.11615 13.4222 7.25237 13.3528 7.37598C13.2834 7.49959 13.19 7.60811 13.0781 7.69516C12.9662 7.78222 12.8381 7.84606 12.7012 7.88296C12.5643 7.91985 12.4215 7.92905 12.281 7.91001C11.6841 7.8407 11.0792 7.89846 10.5062 8.0795C9.93317 8.26054 9.40492 8.56076 8.95615 8.96044C8.50739 9.36012 8.14825 9.85022 7.90233 10.3985C7.65642 10.9469 7.52929 11.541 7.52929 12.142Z" fill="currentcolor"/>
</svg>
